<?xml version="1.0" standalone="no"?>
<!DOCTYPE svg PUBLIC "-//W3C//DTD SVG 1.1//EN" "http://www.w3.org/Graphics/SVG/1.1/DTD/svg11.dtd" >
<svg xmlns="http://www.w3.org/2000/svg" xmlns:xlink="http://www.w3.org/1999/xlink" version="1.1">
<metadata>
Created by FontForge 20190217 at Mon Aug 12 08:53:41 2019
 By Gabriele Brunori
Copyright (c) 1995-2000 Matthieu LESCHEMELLE
</metadata>
<defs>
<font id="Problemiste" horiz-adv-x="556" >
  <font-face 
    font-family="Problemiste"
    font-weight="300"
    font-stretch="normal"
    units-per-em="1000"
    panose-1="0 0 4 0 0 0 0 0 0 0"
    ascent="800"
    descent="-200"
    x-height="523"
    cap-height="718"
    bbox="-166 -225 994 880"
    underline-thickness="50"
    underline-position="-125"
    unicode-range="U+0020-2265"
  />
<missing-glyph horiz-adv-x="502" 
d="M-1 0h500v500h-500v-500zM9 10v480h480v-480h-480z" />
    <glyph glyph-name=".notdef" unicode="&#x2db;" horiz-adv-x="502" 
d="M-1 0h500v500h-500v-500zM9 10v480h480v-480h-480z" />
    <glyph glyph-name=".notdef" unicode="&#x2dc;" horiz-adv-x="502" 
d="M-1 0h500v500h-500v-500zM9 10v480h480v-480h-480z" />
    <glyph glyph-name=".notdef" unicode="&#xe01e;" horiz-adv-x="502" 
d="M-1 0h500v500h-500v-500zM9 10v480h480v-480h-480z" />
    <glyph glyph-name=".notdef" unicode="&#xca;" horiz-adv-x="502" 
d="M-1 0h500v500h-500v-500zM9 10v480h480v-480h-480z" />
    <glyph glyph-name=".notdef" unicode="&#xc2;" horiz-adv-x="502" 
d="M-1 0h500v500h-500v-500zM9 10v480h480v-480h-480z" />
    <glyph glyph-name=".notdef" unicode="&#xfb02;" horiz-adv-x="502" 
d="M-1 0h500v500h-500v-500zM9 10v480h480v-480h-480z" />
    <glyph glyph-name=".notdef" unicode="&#xfb01;" horiz-adv-x="502" 
d="M-1 0h500v500h-500v-500zM9 10v480h480v-480h-480z" />
    <glyph glyph-name=".notdef" unicode="&#x203a;" horiz-adv-x="502" 
d="M-1 0h500v500h-500v-500zM9 10v480h480v-480h-480z" />
    <glyph glyph-name=".notdef" unicode="&#x2039;" horiz-adv-x="502" 
d="M-1 0h500v500h-500v-500zM9 10v480h480v-480h-480z" />
    <glyph glyph-name=".notdef" unicode="&#x20ac;" horiz-adv-x="502" 
d="M-1 0h500v500h-500v-500zM9 10v480h480v-480h-480z" />
    <glyph glyph-name=".notdef" unicode="&#x2044;" horiz-adv-x="502" 
d="M-1 0h500v500h-500v-500zM9 10v480h480v-480h-480z" />
    <glyph glyph-name=".notdef" unicode="&#x178;" horiz-adv-x="502" 
d="M-1 0h500v500h-500v-500zM9 10v480h480v-480h-480z" />
    <glyph glyph-name=".notdef" unicode="&#xff;" horiz-adv-x="502" 
d="M-1 0h500v500h-500v-500zM9 10v480h480v-480h-480z" />
    <glyph glyph-name=".notdef" unicode="&#x25ca;" horiz-adv-x="502" 
d="M-1 0h500v500h-500v-500zM9 10v480h480v-480h-480z" />
    <glyph glyph-name=".notdef" unicode="&#xf7;" horiz-adv-x="502" 
d="M-1 0h500v500h-500v-500zM9 10v480h480v-480h-480z" />
    <glyph glyph-name=".notdef" unicode="&#x2019;" horiz-adv-x="502" 
d="M-1 0h500v500h-500v-500zM9 10v480h480v-480h-480z" />
    <glyph glyph-name=".notdef" unicode="&#x2018;" horiz-adv-x="502" 
d="M-1 0h500v500h-500v-500zM9 10v480h480v-480h-480z" />
    <glyph glyph-name=".notdef" unicode="&#x201d;" horiz-adv-x="502" 
d="M-1 0h500v500h-500v-500zM9 10v480h480v-480h-480z" />
    <glyph glyph-name=".notdef" unicode="&#x201c;" horiz-adv-x="502" 
d="M-1 0h500v500h-500v-500zM9 10v480h480v-480h-480z" />
    <glyph glyph-name=".notdef" unicode="&#x2014;" horiz-adv-x="502" 
d="M-1 0h500v500h-500v-500zM9 10v480h480v-480h-480z" />
    <glyph glyph-name=".notdef" unicode="&#x2013;" horiz-adv-x="502" 
d="M-1 0h500v500h-500v-500zM9 10v480h480v-480h-480z" />
    <glyph glyph-name=".notdef" unicode="&#x153;" horiz-adv-x="502" 
d="M-1 0h500v500h-500v-500zM9 10v480h480v-480h-480z" />
    <glyph glyph-name=".notdef" unicode="&#x152;" horiz-adv-x="502" 
d="M-1 0h500v500h-500v-500zM9 10v480h480v-480h-480z" />
    <glyph glyph-name=".notdef" unicode="&#xd5;" horiz-adv-x="502" 
d="M-1 0h500v500h-500v-500zM9 10v480h480v-480h-480z" />
    <glyph glyph-name=".notdef" unicode="&#xc3;" horiz-adv-x="502" 
d="M-1 0h500v500h-500v-500zM9 10v480h480v-480h-480z" />
    <glyph glyph-name=".notdef" unicode="&#xf8;" horiz-adv-x="502" 
d="M-1 0h500v500h-500v-500zM9 10v480h480v-480h-480z" />
    <glyph glyph-name=".notdef" unicode="&#xe6;" horiz-adv-x="502" 
d="M-1 0h500v500h-500v-500zM9 10v480h480v-480h-480z" />
    <glyph glyph-name=".notdef" unicode="&#xb5;" horiz-adv-x="502" 
d="M-1 0h500v500h-500v-500zM9 10v480h480v-480h-480z" />
    <glyph glyph-name=".notdef" unicode="&#xb1;" horiz-adv-x="502" 
d="M-1 0h500v500h-500v-500zM9 10v480h480v-480h-480z" />
    <glyph glyph-name=".notdef" unicode="&#xd8;" horiz-adv-x="502" 
d="M-1 0h500v500h-500v-500zM9 10v480h480v-480h-480z" />
    <glyph glyph-name=".notdef" unicode="&#xc6;" horiz-adv-x="502" 
d="M-1 0h500v500h-500v-500zM9 10v480h480v-480h-480z" />
    <glyph glyph-name=".notdef" unicode="&#x2260;" horiz-adv-x="502" 
d="M-1 0h500v500h-500v-500zM9 10v480h480v-480h-480z" />
    <glyph glyph-name=".notdef" unicode="&#xa8;" horiz-adv-x="502" 
d="M-1 0h500v500h-500v-500zM9 10v480h480v-480h-480z" />
    <glyph glyph-name=".notdef" unicode="&#xae;" horiz-adv-x="502" 
d="M-1 0h500v500h-500v-500zM9 10v480h480v-480h-480z" />
    <glyph glyph-name=".notdef" unicode="&#xb6;" horiz-adv-x="502" 
d="M-1 0h500v500h-500v-500zM9 10v480h480v-480h-480z" />
    <glyph glyph-name=".notdef" unicode="&#x2022;" horiz-adv-x="502" 
d="M-1 0h500v500h-500v-500zM9 10v480h480v-480h-480z" />
    <glyph glyph-name=".notdef" unicode="&#xa3;" horiz-adv-x="502" 
d="M-1 0h500v500h-500v-500zM9 10v480h480v-480h-480z" />
    <glyph glyph-name=".notdef" unicode="&#xa2;" horiz-adv-x="502" 
d="M-1 0h500v500h-500v-500zM9 10v480h480v-480h-480z" />
    <glyph glyph-name=".notdef" unicode="&#xb0;" horiz-adv-x="502" 
d="M-1 0h500v500h-500v-500zM9 10v480h480v-480h-480z" />
    <glyph glyph-name=".notdef" unicode="&#x2020;" horiz-adv-x="502" 
d="M-1 0h500v500h-500v-500zM9 10v480h480v-480h-480z" />
    <glyph glyph-name=".notdef" unicode="&#xfc;" horiz-adv-x="502" 
d="M-1 0h500v500h-500v-500zM9 10v480h480v-480h-480z" />
    <glyph glyph-name=".notdef" unicode="&#xfb;" horiz-adv-x="502" 
d="M-1 0h500v500h-500v-500zM9 10v480h480v-480h-480z" />
    <glyph glyph-name=".notdef" unicode="&#xf9;" horiz-adv-x="502" 
d="M-1 0h500v500h-500v-500zM9 10v480h480v-480h-480z" />
    <glyph glyph-name=".notdef" unicode="&#xfa;" horiz-adv-x="502" 
d="M-1 0h500v500h-500v-500zM9 10v480h480v-480h-480z" />
    <glyph glyph-name=".notdef" unicode="&#xf5;" horiz-adv-x="502" 
d="M-1 0h500v500h-500v-500zM9 10v480h480v-480h-480z" />
    <glyph glyph-name=".notdef" unicode="&#xf6;" horiz-adv-x="502" 
d="M-1 0h500v500h-500v-500zM9 10v480h480v-480h-480z" />
    <glyph glyph-name=".notdef" unicode="&#xf4;" horiz-adv-x="502" 
d="M-1 0h500v500h-500v-500zM9 10v480h480v-480h-480z" />
    <glyph glyph-name=".notdef" unicode="&#xf2;" horiz-adv-x="502" 
d="M-1 0h500v500h-500v-500zM9 10v480h480v-480h-480z" />
    <glyph glyph-name=".notdef" unicode="&#xf3;" horiz-adv-x="502" 
d="M-1 0h500v500h-500v-500zM9 10v480h480v-480h-480z" />
    <glyph glyph-name=".notdef" unicode="&#xf1;" horiz-adv-x="502" 
d="M-1 0h500v500h-500v-500zM9 10v480h480v-480h-480z" />
    <glyph glyph-name=".notdef" unicode="&#xef;" horiz-adv-x="502" 
d="M-1 0h500v500h-500v-500zM9 10v480h480v-480h-480z" />
    <glyph glyph-name=".notdef" unicode="&#xee;" horiz-adv-x="502" 
d="M-1 0h500v500h-500v-500zM9 10v480h480v-480h-480z" />
    <glyph glyph-name=".notdef" unicode="&#xec;" horiz-adv-x="502" 
d="M-1 0h500v500h-500v-500zM9 10v480h480v-480h-480z" />
    <glyph glyph-name=".notdef" unicode="&#xed;" horiz-adv-x="502" 
d="M-1 0h500v500h-500v-500zM9 10v480h480v-480h-480z" />
    <glyph glyph-name=".notdef" unicode="&#xeb;" horiz-adv-x="502" 
d="M-1 0h500v500h-500v-500zM9 10v480h480v-480h-480z" />
    <glyph glyph-name=".notdef" unicode="&#xea;" horiz-adv-x="502" 
d="M-1 0h500v500h-500v-500zM9 10v480h480v-480h-480z" />
    <glyph glyph-name=".notdef" unicode="&#xe8;" horiz-adv-x="502" 
d="M-1 0h500v500h-500v-500zM9 10v480h480v-480h-480z" />
    <glyph glyph-name=".notdef" unicode="&#xe9;" horiz-adv-x="502" 
d="M-1 0h500v500h-500v-500zM9 10v480h480v-480h-480z" />
    <glyph glyph-name=".notdef" unicode="&#xe7;" horiz-adv-x="502" 
d="M-1 0h500v500h-500v-500zM9 10v480h480v-480h-480z" />
    <glyph glyph-name=".notdef" unicode="&#xe5;" horiz-adv-x="502" 
d="M-1 0h500v500h-500v-500zM9 10v480h480v-480h-480z" />
    <glyph glyph-name=".notdef" unicode="&#xe3;" horiz-adv-x="502" 
d="M-1 0h500v500h-500v-500zM9 10v480h480v-480h-480z" />
    <glyph glyph-name=".notdef" unicode="&#xe4;" horiz-adv-x="502" 
d="M-1 0h500v500h-500v-500zM9 10v480h480v-480h-480z" />
    <glyph glyph-name=".notdef" unicode="&#xe2;" horiz-adv-x="502" 
d="M-1 0h500v500h-500v-500zM9 10v480h480v-480h-480z" />
    <glyph glyph-name=".notdef" unicode="&#xe0;" horiz-adv-x="502" 
d="M-1 0h500v500h-500v-500zM9 10v480h480v-480h-480z" />
    <glyph glyph-name=".notdef" unicode="&#xe1;" horiz-adv-x="502" 
d="M-1 0h500v500h-500v-500zM9 10v480h480v-480h-480z" />
    <glyph glyph-name=".notdef" unicode="&#xdc;" horiz-adv-x="502" 
d="M-1 0h500v500h-500v-500zM9 10v480h480v-480h-480z" />
    <glyph glyph-name=".notdef" unicode="&#xd6;" horiz-adv-x="502" 
d="M-1 0h500v500h-500v-500zM9 10v480h480v-480h-480z" />
    <glyph glyph-name=".notdef" unicode="&#xd1;" horiz-adv-x="502" 
d="M-1 0h500v500h-500v-500zM9 10v480h480v-480h-480z" />
    <glyph glyph-name=".notdef" unicode="&#xc9;" horiz-adv-x="502" 
d="M-1 0h500v500h-500v-500zM9 10v480h480v-480h-480z" />
    <glyph glyph-name=".notdef" unicode="&#xc7;" horiz-adv-x="502" 
d="M-1 0h500v500h-500v-500zM9 10v480h480v-480h-480z" />
    <glyph glyph-name=".notdef" unicode="&#xc5;" horiz-adv-x="502" 
d="M-1 0h500v500h-500v-500zM9 10v480h480v-480h-480z" />
    <glyph glyph-name=".notdef" unicode="&#xc4;" horiz-adv-x="502" 
d="M-1 0h500v500h-500v-500zM9 10v480h480v-480h-480z" />
    <glyph glyph-name=".notdef" horiz-adv-x="502" 
d="M-1 0h500v500h-500v-500zM9 10v480h480v-480h-480z" />
    <glyph glyph-name=".notdef" horiz-adv-x="502" 
d="M-1 0h500v500h-500v-500zM9 10v480h480v-480h-480z" />
    <glyph glyph-name=".notdef" horiz-adv-x="502" 
d="M-1 0h500v500h-500v-500zM9 10v480h480v-480h-480z" />
    <glyph glyph-name=".notdef" horiz-adv-x="502" 
d="M-1 0h500v500h-500v-500zM9 10v480h480v-480h-480z" />
    <glyph glyph-name=".notdef" horiz-adv-x="502" 
d="M-1 0h500v500h-500v-500zM9 10v480h480v-480h-480z" />
    <glyph glyph-name=".notdef" horiz-adv-x="502" 
d="M-1 0h500v500h-500v-500zM9 10v480h480v-480h-480z" />
    <glyph glyph-name=".notdef" horiz-adv-x="502" 
d="M-1 0h500v500h-500v-500zM9 10v480h480v-480h-480z" />
    <glyph glyph-name=".notdef" horiz-adv-x="502" 
d="M-1 0h500v500h-500v-500zM9 10v480h480v-480h-480z" />
    <glyph glyph-name=".notdef" horiz-adv-x="502" 
d="M-1 0h500v500h-500v-500zM9 10v480h480v-480h-480z" />
    <glyph glyph-name=".notdef" horiz-adv-x="502" 
d="M-1 0h500v500h-500v-500zM9 10v480h480v-480h-480z" />
    <glyph glyph-name=".notdef" horiz-adv-x="502" 
d="M-1 0h500v500h-500v-500zM9 10v480h480v-480h-480z" />
    <glyph glyph-name=".notdef" horiz-adv-x="502" 
d="M-1 0h500v500h-500v-500zM9 10v480h480v-480h-480z" />
    <glyph glyph-name=".notdef" horiz-adv-x="502" 
d="M-1 0h500v500h-500v-500zM9 10v480h480v-480h-480z" />
    <glyph glyph-name=".notdef" horiz-adv-x="502" 
d="M-1 0h500v500h-500v-500zM9 10v480h480v-480h-480z" />
    <glyph glyph-name=".notdef" horiz-adv-x="502" 
d="M-1 0h500v500h-500v-500zM9 10v480h480v-480h-480z" />
    <glyph glyph-name=".notdef" horiz-adv-x="502" 
d="M-1 0h500v500h-500v-500zM9 10v480h480v-480h-480z" />
    <glyph glyph-name=".notdef" horiz-adv-x="502" 
d="M-1 0h500v500h-500v-500zM9 10v480h480v-480h-480z" />
    <glyph glyph-name=".notdef" horiz-adv-x="502" 
d="M-1 0h500v500h-500v-500zM9 10v480h480v-480h-480z" />
    <glyph glyph-name=".notdef" horiz-adv-x="502" 
d="M-1 0h500v500h-500v-500zM9 10v480h480v-480h-480z" />
    <glyph glyph-name=".notdef" unicode="&#xd;" horiz-adv-x="502" 
d="M-1 0h500v500h-500v-500zM9 10v480h480v-480h-480z" />
    <glyph glyph-name=".notdef" horiz-adv-x="502" 
d="M-1 0h500v500h-500v-500zM9 10v480h480v-480h-480z" />
    <glyph glyph-name=".notdef" horiz-adv-x="502" 
d="M-1 0h500v500h-500v-500zM9 10v480h480v-480h-480z" />
    <glyph glyph-name=".notdef" unicode="&#xa;" horiz-adv-x="502" 
d="M-1 0h500v500h-500v-500zM9 10v480h480v-480h-480z" />
    <glyph glyph-name=".notdef" unicode="&#x9;" horiz-adv-x="502" 
d="M-1 0h500v500h-500v-500zM9 10v480h480v-480h-480z" />
    <glyph glyph-name=".notdef" horiz-adv-x="502" 
d="M-1 0h500v500h-500v-500zM9 10v480h480v-480h-480z" />
    <glyph glyph-name=".notdef" horiz-adv-x="502" 
d="M-1 0h500v500h-500v-500zM9 10v480h480v-480h-480z" />
    <glyph glyph-name=".notdef" horiz-adv-x="502" 
d="M-1 0h500v500h-500v-500zM9 10v480h480v-480h-480z" />
    <glyph glyph-name=".notdef" horiz-adv-x="502" 
d="M-1 0h500v500h-500v-500zM9 10v480h480v-480h-480z" />
    <glyph glyph-name=".notdef" horiz-adv-x="502" 
d="M-1 0h500v500h-500v-500zM9 10v480h480v-480h-480z" />
    <glyph glyph-name=".notdef" horiz-adv-x="502" 
d="M-1 0h500v500h-500v-500zM9 10v480h480v-480h-480z" />
    <glyph glyph-name=".notdef" horiz-adv-x="502" 
d="M-1 0h500v500h-500v-500zM9 10v480h480v-480h-480z" />
    <glyph glyph-name=".notdef" horiz-adv-x="502" 
d="M-1 0h500v500h-500v-500zM9 10v480h480v-480h-480z" />
    <glyph glyph-name=".notdef" horiz-adv-x="502" 
d="M-1 0h500v500h-500v-500zM9 10v480h480v-480h-480z" />
    <glyph glyph-name="space" unicode=" " horiz-adv-x="278" 
 />
    <glyph glyph-name="exclam" unicode="!" horiz-adv-x="278" 
d="M187 102h-97v-102h97v102zM163 171l24 310v237h-97v-237l24 -310h49z" />
    <glyph glyph-name="quotedbl" unicode="&#x22;" horiz-adv-x="355" 
d="M70 463h73v255h-73v-255zM212 463h73v255h-73v-255z" />
    <glyph glyph-name="numbersign" unicode="#" horiz-adv-x="707" 
d="M96 161h244l-35 -169h60l35 169h296v58h-285l30 143h255v59h-244l36 171h-60l-36 -171h-296v-59h286l-31 -143h-255v-58z" />
    <glyph glyph-name="dollar" unicode="$" 
d="M253 409q-51 9 -85 36.5t-34 76.5q0 48 32 82t87 34v-229zM300 308l54 -17q33 -10 55.5 -40.5t22.5 -70.5q0 -53 -34.5 -89.5t-97.5 -36.5v254zM503 521q-2 57 -23.5 94t-53 57t-63 28t-63.5 11v64h-47v-64q-44 0 -82 -15t-66 -42t-43.5 -62.5t-15.5 -75.5
q0 -49 17 -83.5t46 -56t63.5 -34t80.5 -23.5v-265q-38 6 -62.5 17t-39 28.5t-22 45t-9.5 68.5h-88q0 -63 16.5 -106.5t46.5 -70.5t69 -39.5t89 -15.5v-96h47v96q35 0 72.5 10.5t71 35t55 67t21.5 102.5q0 51 -14.5 84t-42 53.5t-63 33.5t-99.5 32h-1v239q63 -12 87.5 -41
t30.5 -76h85z" />
    <glyph glyph-name="percent" unicode="%" horiz-adv-x="889" 
d="M39 526q0 -35 13.5 -66.5t37 -55t54.5 -36.5t66 -13t66 13.5t54.5 37t36.5 54.5t13 66t-13.5 66t-37 54t-54.5 36t-65 13q-35 0 -66 -13t-54.5 -36t-37 -54t-13.5 -66zM109 526q0 41 29.5 70t71.5 29t71 -28.5t29 -70.5t-29 -71.5t-72 -29.5q-41 0 -70.5 28t-29.5 73z
M509 164q0 -35 13.5 -66.5t37 -55t54.5 -36.5t66 -13t66 13.5t54.5 37t36.5 54.5t13 66t-13.5 66t-37 54t-54.5 36t-65 13q-35 0 -66 -13t-54.5 -36t-37 -54t-13.5 -66zM579 164q0 41 29.5 70t71.5 29t71 -28.5t29 -70.5t-29 -71.5t-72 -29.5q-41 0 -70.5 28t-29.5 73z
M669 703h-55l-395 -722h54z" />
    <glyph glyph-name="ampersand" unicode="&#x26;" horiz-adv-x="667" 
d="M417 141q-58 -80 -156 -80q-16 0 -38 6.5t-43 20.5t-34.5 37t-13.5 55q0 53 28 84.5t95 74.5zM286 439q-28 28 -49.5 61t-21.5 64q0 12 3 24.5t12 25t26 20.5t43 8q29 0 53 -18t24 -61q0 -40 -25 -68t-65 -56zM517 155q26 48 40.5 95.5t17.5 87.5h-83q-7 -39 -12 -59
t-17 -53l-131 156l1 1q29 20 48 34.5t38 36.5t30.5 51t11.5 65q0 60 -41 104t-120 44t-124.5 -47t-45.5 -113q0 -43 16 -74t60 -85q-50 -28 -81.5 -53t-49 -50.5t-24.5 -54.5t-7 -68q0 -25 9 -56t32 -61.5t65.5 -50.5t104.5 -20q73 0 120 25t89 72l67 -82h114z" />
    <glyph glyph-name="quoteright" unicode="'" horiz-adv-x="222" 
d="M53 612h53q0 -17 -1.5 -32.5t-6.5 -30t-16 -25.5t-29 -14v-47q57 13 80.5 53.5t23.5 103.5v98h-104v-106z" />
    <glyph glyph-name="parenleft" unicode="(" horiz-adv-x="333" 
d="M237 733q-85 -121 -127 -233t-42 -239q0 -68 12 -128t34 -115t52 -107t74 -118h59q-35 68 -58.5 119t-41.5 103.5t-27.5 107t-9.5 114.5q0 87 9 154t26 120.5t39 100t62 121.5h-61z" />
    <glyph glyph-name="parenright" unicode=")" horiz-adv-x="333" 
d="M96 -207q85 121 127 233t42 239q0 68 -12 128t-34 115t-52 107t-74 118h-59q35 -68 58.5 -119t41.5 -103.5t27.5 -107t9.5 -114.5q0 -87 -9 -154t-26 -120.5t-39 -100t-62 -121.5h61z" />
    <glyph glyph-name="asterisk" unicode="*" horiz-adv-x="389" 
d="M39 591l108 -34l-67 -92l49 -34l65 94l65 -94l49 34l-67 92l108 34l-20 55l-105 -38v110h-60v-110l-105 38z" />
    <glyph glyph-name="plus" unicode="+" horiz-adv-x="643" 
d="M283 334h-253v-85h253v-250h85v250h252v85h-252v250h-85v-250z" />
    <glyph glyph-name="comma" unicode="," horiz-adv-x="278" 
d="M87 0h53q0 -41 -12 -69.5t-41 -31.5v-46q13 2 28.5 7.5t33.5 22t30 47.5t12 78v98h-104v-106z" />
    <glyph glyph-name="hyphen" unicode="-" horiz-adv-x="333" 
d="M289 322h-245v-90h245v90z" />
    <glyph glyph-name="period" unicode="." horiz-adv-x="278" 
d="M191 106h-104v-106h104v106z" />
    <glyph glyph-name="slash" unicode="/" horiz-adv-x="278" 
d="M295 737h-66l-246 -756h67z" />
    <glyph glyph-name="zero" unicode="0" 
d="M425 342q0 -135 -36.5 -208.5t-110.5 -73.5t-110.5 73.5t-36.5 208.5t36.5 208.5t110.5 73.5t110.5 -73.5t36.5 -208.5zM519 342q0 62 -10 123.5t-36.5 115.5t-74.5 88t-120 34t-120 -34t-74 -88t-36.5 -115.5t-10.5 -123.5t10.5 -123.5t36.5 -115.5t74 -88t120 -34
t120 34t74.5 88t36.5 115.5t10 123.5z" />
    <glyph glyph-name="one" unicode="1" 
d="M359 703h-69q-10 -43 -25 -68t-36 -38t-50 -19t-78 -9v-70h164v-499h94v703z" />
    <glyph glyph-name="two" unicode="2" 
d="M132 451v2q2 29 6.5 54.5t18 53t42.5 45.5t75 18q37 0 64 -11.5t43.5 -30t24 -40.5t7.5 -45q0 -33 -9 -56.5t-25 -41t-36 -31t-54 -32.5l-5 -3l-93 -54q-77 -45 -119 -110.5t-46 -168.5h481v83h-382q4 29 31 64.5t90 70.5l73 40q48 25 79 46t56 47.5t39 61.5t14 80
q0 96 -64 154q-30 27 -70 41.5t-86 14.5q-37 0 -76.5 -8.5t-77.5 -34.5t-63.5 -77.5t-25.5 -131.5h88z" />
    <glyph glyph-name="three" unicode="3" 
d="M224 324q3 0 20 1h20q29 0 55.5 -4t51.5 -17t41 -39.5t16 -68.5q0 -60 -42.5 -98t-110.5 -38q-46 0 -76 14t-45.5 36.5t-21 48t-7.5 56.5h-91q5 -71 28 -123t77 -80q59 -31 130 -31q65 0 113.5 18.5t79 50.5t45.5 72.5t15 84.5q0 67 -31 106.5t-86 57.5v2
q35 11 62.5 47.5t27.5 97.5q0 82 -58.5 133.5t-158.5 51.5q-66 0 -111 -20.5t-70.5 -54t-35.5 -73t-10 -82.5h86v0q2 29 6.5 51t18 45.5t41 39t71.5 15.5q37 0 63 -10.5t40.5 -27.5t20.5 -36t6 -37q0 -61 -38 -88t-96 -27q-16 0 -46 2v-76z" />
    <glyph glyph-name="four" unicode="4" 
d="M523 171v76h-103v456h-73l-322 -446v-86h307v-171h88v171h103zM330 566h2v-319h-226z" />
    <glyph glyph-name="five" unicode="5" 
d="M177 602h298v86h-364l-53 -377l76 -4q25 32 58.5 49.5t71.5 17.5q68 0 112 -41.5t44 -114.5q0 -68 -40.5 -114.5t-107.5 -46.5q-62 0 -102 29.5t-47 88.5h-91q6 -56 28.5 -94.5t55 -60t69 -30.5t74.5 -9q77 0 128.5 25.5t79 65t37.5 80t10 76.5q0 53 -19.5 95t-52.5 71
t-74.5 44t-84.5 15t-76.5 -12t-59.5 -32z" />
    <glyph glyph-name="six" unicode="6" 
d="M503 516q-3 51 -23 87.5t-50.5 58.5t-64.5 31.5t-67 9.5q-75 0 -126 -35t-80.5 -91t-41.5 -120.5t-12 -129.5q0 -75 12 -136t42 -108q34 -53 83.5 -77.5t97.5 -24.5q69 0 108 17t70 51q36 39 51.5 80.5t15.5 95.5q0 60 -21 103t-54.5 69.5t-71.5 38.5t-73 12
q-65 0 -106 -25.5t-61 -60.5l-2 2q0 34 7.5 77t26 85t52 70t81.5 28q54 0 83 -29t38 -79h86zM141 216q0 66 37.5 109.5t106.5 43.5q39 0 66.5 -13.5t44.5 -36t24 -47.5t7 -51q0 -72 -37.5 -116.5t-100.5 -44.5q-72 0 -110 46.5t-38 109.5z" />
    <glyph glyph-name="seven" unicode="7" 
d="M37 602h387q-50 -58 -98 -132t-87.5 -156t-66 -162.5t-35.5 -151.5h97q18 110 54 209.5t79 178t83.5 134t72.5 89.5v77h-486v-86z" />
    <glyph glyph-name="eight" unicode="8" 
d="M492 522q0 32 -12.5 64t-39 58.5t-68 42.5t-97.5 16q-59 0 -101 -18.5t-66.5 -48.5t-35 -62.5t-10.5 -63.5q0 -49 25 -84.5t70 -52.5q-57 -23 -88 -65.5t-31 -105.5q0 -20 1.5 -37.5t8 -40t22 -46t40.5 -43.5q38 -29 84.5 -41.5t84.5 -12.5q60 0 105.5 18t75 49.5
t43.5 71t14 83.5q0 23 -5 46t-17.5 46t-35.5 44t-57 35q17 9 30.5 18t27.5 26t23 43t9 61zM277 330q64 0 105 -34.5t41 -102.5q0 -39 -12.5 -65.5t-32.5 -41t-44.5 -20.5t-51.5 -6q-43 0 -73 13t-46.5 34.5t-23.5 45.5t-7 47q0 53 37.5 91.5t107.5 38.5zM276 406
q-50 0 -86.5 30t-36.5 78q0 19 5.5 38t18.5 35.5t36.5 26.5t56.5 10q37 0 62.5 -10t40.5 -25.5t21.5 -33.5t6.5 -36q0 -49 -34.5 -81t-90.5 -32z" />
    <glyph glyph-name="nine" unicode="9" 
d="M263 235q51 0 96.5 22.5t64.5 61.5l2 -2q-16 -137 -56.5 -200t-112.5 -63q-53 0 -84 30.5t-35 84.5h-88q0 -29 10.5 -60.5t34.5 -61t65 -48t99 -18.5q84 0 137 47t78 114.5t32.5 128t7.5 106.5q0 55 -8 108t-33 103t-75.5 82.5t-129.5 32.5q-54 0 -96.5 -19t-71.5 -52.5
t-43.5 -77.5t-14.5 -92q0 -104 61.5 -165.5t159.5 -61.5zM276 314q-26 0 -50 5.5t-45.5 21.5t-34.5 46.5t-13 78.5q0 71 37.5 114.5t98.5 43.5q71 0 106.5 -42.5t35.5 -107.5q0 -49 -13.5 -81t-34.5 -49t-43.5 -23.5t-43.5 -6.5z" />
    <glyph glyph-name="colon" unicode=":" horiz-adv-x="278" 
d="M191 106h-104v-106h104v106zM191 516h-104v-106h104v106z" />
    <glyph glyph-name="semicolon" unicode=";" horiz-adv-x="278" 
d="M87 0h53q0 -41 -12 -69.5t-41 -31.5v-46q13 2 28.5 7.5t33.5 22t30 47.5t12 78v98h-104v-106zM191 410v106h-104v-106h104z" />
    <glyph glyph-name="less" unicode="&#x3c;" horiz-adv-x="584" 
d="M536 91l-390 162l390 162v80l-488 -207v-70l488 -207v80z" />
    <glyph glyph-name="equal" unicode="=" horiz-adv-x="584" 
d="M545 390h-506v-73h506v73zM545 188h-506v-73h506v73z" />
    <glyph glyph-name="greater" unicode="&#x3e;" horiz-adv-x="584" 
d="M48 415l390 -162l-390 -162v-80l488 207v70l-488 207v-80z" />
    <glyph glyph-name="question" unicode="?" 
d="M144 493q0 24 3.5 48.5t16.5 50t40.5 42.5t72.5 17q34 0 58 -11t37.5 -28.5t19.5 -37t6 -37.5q0 -22 -3.5 -36.5t-11 -27.5t-21 -28t-42.5 -45l-2 -2q-30 -31 -47 -51t-27.5 -42t-15.5 -51t-5 -71h88q0 37 5 61.5t14.5 43t23.5 34t41 41.5l3 3q54 52 74 85t20 80
q0 92 -61.5 144t-150.5 52q-86 0 -145 -46q-49 -38 -62.5 -79.5t-16.5 -108.5h88zM318 102h-97v-102h97v102z" />
    <glyph glyph-name="at" unicode="@" horiz-adv-x="1015" 
d="M611 408q0 -30 -11.5 -65t-32 -66t-48 -50t-57.5 -19q-37 0 -60.5 27t-23.5 70q0 31 11 65.5t31.5 64t48.5 47.5t60 18q33 0 57.5 -27.5t24.5 -64.5zM642 494q-19 41 -48 59.5t-67 18.5q-50 0 -93 -23.5t-74 -63t-47.5 -89t-16.5 -100.5q0 -66 42 -113t105 -47
q33 0 64 17.5t56 44.5l2 1q1 -31 19 -47t45 -16q34 0 75.5 20t79 58.5t61 92.5t23.5 118q0 67 -27 124.5t-75 99.5t-110.5 65t-131.5 23q-76 0 -144.5 -29t-121 -81t-82 -120.5t-29.5 -145.5q0 -78 29 -148t81.5 -122t122.5 -81t149 -29q96 0 179.5 47t132.5 129h-67
q-43 -52 -108 -83t-135 -31q-65 0 -121.5 23.5t-99.5 66t-66.5 100t-23.5 122.5q0 66 22 124t63 102.5t97 69t122 24.5q57 0 107.5 -18t89 -51.5t60.5 -81.5t22 -107q0 -39 -12 -77.5t-33 -70t-46.5 -50t-50.5 -18.5q-21 0 -21 29q0 11 11.5 52.5t31.5 109.5
q17 57 26.5 89.5t20.5 74.5h-68z" />
    <glyph glyph-name="A" unicode="A" horiz-adv-x="667" 
d="M477 209l71 -209h106l-260 718h-110l-270 -718h100l75 209h288zM219 295l115 316h2l106 -316h-223z" />
    <glyph glyph-name="B" unicode="B" horiz-adv-x="667" 
d="M171 635h176q79 0 114 -26.5t35 -78.5q0 -63 -38 -89.5t-112 -26.5h-175v221zM74 0h309q115 0 179.5 61t64.5 151q0 43 -12.5 74t-32 50t-39 29.5t-45.5 21.5h-1q54 25 75 65.5t21 84.5q0 78 -53.5 129.5t-149.5 51.5h-316v-718zM171 335h191q34 0 62.5 -5t52.5 -18.5
t38.5 -37.5t14.5 -60q0 -61 -39 -96t-113 -35h-207v252z" />
    <glyph glyph-name="C" unicode="C" horiz-adv-x="722" 
d="M674 502q-5 46 -26.5 88.5t-58.5 75.5t-90 52t-120 19q-77 0 -139.5 -27t-106 -76.5t-66.5 -118.5t-23 -152q0 -100 26.5 -173.5t72 -119t103 -67.5t121.5 -22q34 0 76.5 8t92.5 35.5t90.5 86.5t54.5 153h-94q-11 -59 -35 -98.5t-53.5 -61t-59 -29.5t-57.5 -8
q-65 0 -111 22.5t-74 62.5t-40.5 94t-12.5 120q0 136 66.5 210.5t168.5 74.5q30 0 60 -6t58.5 -22.5t50.5 -46t32 -74.5h94z" />
    <glyph glyph-name="D" unicode="D" horiz-adv-x="722" 
d="M81 0h287q84 0 144 33t95.5 87.5t51 119t15.5 129.5q0 77 -21 141.5t-60 111t-95.5 71.5t-125.5 25h-291v-718zM178 635h181q101 0 158 -69.5t57 -202.5t-56 -206.5t-152 -73.5h-188v552z" />
    <glyph glyph-name="E" unicode="E" horiz-adv-x="667" 
d="M616 86h-433v240h393v86h-393v220h426v86h-523v-718h530v86z" />
    <glyph glyph-name="F" unicode="F" horiz-adv-x="611" 
d="M183 326h352v86h-352v220h400v86h-497v-718h97v326z" />
    <glyph glyph-name="G" unicode="G" horiz-adv-x="778" 
d="M389 301h224q0 -63 -17.5 -109.5t-61.5 -81.5q-35 -28 -72.5 -37t-74.5 -9q-68 0 -115.5 24.5t-74 66.5t-38 94t-11.5 111q0 69 18 123.5t50.5 92t75 56.5t91.5 19q33 0 65.5 -6.5t62.5 -23t53 -46.5t34 -75h94q-7 58 -36 103t-72 75t-94 44.5t-102 14.5q-84 0 -149 -32
t-107 -86t-63 -120t-21 -134q0 -39 3 -72.5t13.5 -72.5t34 -80t62.5 -78q36 -35 87 -58t133 -23q73 0 136.5 30.5t100.5 81.5l23 -93h63v384h-315v-83z" />
    <glyph glyph-name="H" unicode="H" horiz-adv-x="722" 
d="M549 421h-375v297h-97v-718h97v335h375v-335h97v718h-97v-297z" />
    <glyph glyph-name="I" unicode="I" horiz-adv-x="278" 
d="M188 718h-97v-718h97v718z" />
    <glyph glyph-name="J" unicode="J" horiz-adv-x="500" 
d="M17 231v-71q0 -29 9.5 -59.5t32 -57.5t63 -44.5t99.5 -17.5q39 0 75.5 10.5t66 34.5t47.5 66t18 102v524h-97v-530q0 -58 -26 -91t-89 -33q-53 0 -80.5 27.5t-27.5 89.5v50h-91z" />
    <glyph glyph-name="K" unicode="K" horiz-adv-x="667" 
d="M173 252l113 108l251 -360h126l-307 428l299 290h-134l-348 -348v348h-97v-718h97v252z" />
    <glyph glyph-name="L" unicode="L" 
d="M173 718h-97v-718h461v86h-364v632z" />
    <glyph glyph-name="M" unicode="M" horiz-adv-x="833" 
d="M761 0v718h-138l-204 -607h-2l-205 607h-139v-718h94v424q0 3 -1 46q-1 88 -1 132h2l202 -602h96l202 603h2q0 -45 -1 -134q-1 -42 -1 -45v-424h94z" />
    <glyph glyph-name="N" unicode="N" horiz-adv-x="722" 
d="M552 138h-2l-359 580h-115v-718h94v580h2l365 -580h109v718h-94v-580z" />
    <glyph glyph-name="O" unicode="O" horiz-adv-x="778" 
d="M639 359q0 -63 -17 -116.5t-49.5 -93t-79 -61t-104.5 -21.5t-104.5 21.5t-79 60.5t-49.5 93t-17 117q0 64 17 117t49.5 92.5t79 61t104.5 21.5t104.5 -21.5t79 -60.5t49.5 -92.5t17 -117.5zM739 359q0 63 -18 128.5t-59 122.5t-109.5 92t-163.5 35t-163.5 -35t-109 -92
t-59 -122.5t-18.5 -128.5t18 -128.5t59 -122.5t109.5 -92t163.5 -35t163.5 35t109.5 92t59 122.5t18 128.5z" />
    <glyph glyph-name="P" unicode="P" horiz-adv-x="667" 
d="M183 635h197q66 0 104 -28t38 -92q0 -69 -38 -99t-108 -30h-193v249zM183 303h226q56 0 97 18.5t66.5 49t37.5 68t12 77.5q0 89 -57.5 145.5t-155.5 56.5h-323v-718h97v303z" />
    <glyph glyph-name="Q" unicode="Q" horiz-adv-x="778" 
d="M420 148l75 -58q-46 -23 -106 -23q-58 0 -104.5 21.5t-79 60.5t-49.5 93t-17 117q0 64 17 117t49.5 92.5t79 61t104.5 21.5t104.5 -21.5t79 -60.5t49.5 -92.5t17 -117.5q0 -69 -20.5 -126.5t-58.5 -95.5l-91 71zM733 2l-98 76q53 54 78.5 129.5t25.5 151.5
q0 63 -18 128.5t-59 122.5t-109.5 92t-163.5 35t-163.5 -35t-109 -92t-59 -122.5t-18.5 -128.5t18 -128.5t59 -122.5t109.5 -92t163.5 -35q110 0 185 48l110 -85z" />
    <glyph glyph-name="R" unicode="R" horiz-adv-x="722" 
d="M185 308h235q41 0 67 -11t39.5 -29.5t17.5 -40t4 -47.5q0 -13 1 -38t2.5 -50.5t5 -51t8.5 -40.5h119v16q-22 12 -28.5 26.5t-7.5 45.5l-6 130q-1 36 -8.5 59.5t-19.5 38t-25 22t-33 15.5q21 12 37.5 25.5t31 33t23 47.5t8.5 66q0 55 -19.5 92.5t-52.5 59.5t-75 31.5
t-89 9.5h-332v-718h97v308zM185 635h242q23 0 44 -4t40.5 -16t32 -36.5t12.5 -63.5q0 -38 -12 -63t-33 -38t-46 -18t-55 -5h-225v244z" />
    <glyph glyph-name="S" unicode="S" horiz-adv-x="667" 
d="M600 508q-2 39 -12 76t-38.5 72t-85 58t-144.5 23q-63 0 -110.5 -18t-77.5 -49.5t-44.5 -71.5t-14.5 -83q0 -44 16 -75t40 -50t48.5 -28.5t48.5 -15.5l147 -34q47 -11 75.5 -21.5t45.5 -24.5t24.5 -33t7.5 -48q0 -36 -18.5 -60.5t-47 -37.5t-60 -18t-62.5 -5
q-37 0 -71.5 8.5t-63.5 28t-46 52.5t-17 79h-91q0 -57 15 -100.5t58 -81.5q16 -14 32.5 -25t41 -21t60.5 -16.5t83 -6.5q51 0 99.5 11t90 35.5t66.5 67.5t25 103q0 81 -44 127.5t-119 64.5l-205 47q-38 9 -61.5 29.5t-23.5 61.5q0 39 16 64t41 38.5t52 18.5t55 5
q32 0 62.5 -7.5t56 -24.5t41.5 -45.5t18 -68.5h91z" />
    <glyph glyph-name="T" unicode="T" horiz-adv-x="611" 
d="M14 632h243v-632h97v632h243v86h-583v-86z" />
    <glyph glyph-name="U" unicode="U" horiz-adv-x="722" 
d="M547 718v-454q0 -56 -16 -94.5t-43 -61t-60 -32t-70 -9.5q-35 0 -67 10t-58 32.5t-41.5 61.5t-15.5 95v452h-97v-479q0 -52 16.5 -98t50.5 -82.5t86.5 -57t122.5 -20.5q72 0 126.5 21t91 58.5t54 86.5t17.5 105v466h-97z" />
    <glyph glyph-name="V" unicode="V" horiz-adv-x="667" 
d="M335 106h-2l-205 612h-108l262 -718h103l262 718h-109z" />
    <glyph glyph-name="W" unicode="W" horiz-adv-x="944" 
d="M471 595h2l164 -595h102l189 718h-107l-134 -584h-2l-161 584h-106l-161 -584h-2l-134 584h-105l187 -718h102z" />
    <glyph glyph-name="X" unicode="X" horiz-adv-x="667" 
d="M396 368l241 350h-116l-182 -275l-182 275h-122l241 -350l-257 -368h117l199 295l193 -295h120z" />
    <glyph glyph-name="Y" unicode="Y" horiz-adv-x="667" 
d="M382 289l271 429h-114l-206 -345l-206 345h-113l271 -429v-289h97v289z" />
    <glyph glyph-name="Z" unicode="Z" horiz-adv-x="611" 
d="M588 86h-442l442 548v84h-532v-86h407l-440 -551v-81h565v86z" />
    <glyph glyph-name="bracketleft" unicode="[" horiz-adv-x="278" 
d="M142 651h108v71h-187v-918h187v71h-108v776z" />
    <glyph glyph-name="backslash" unicode="\" horiz-adv-x="278" 
d="M228 -19h67l-246 756h-66z" />
    <glyph glyph-name="bracketright" unicode="]" horiz-adv-x="278" 
d="M136 -125h-108v-71h187v918h-187v-71h108v-776z" />
    <glyph glyph-name="asciicircum" unicode="^" horiz-adv-x="469" 
d="M483 264l-212 424h-72l-213 -424h78l171 344l171 -344h77z" />
    <glyph glyph-name="underscore" unicode="_" 
d="M556 -125v50h-556v-50h556z" />
    <glyph glyph-name="quoteleft" unicode="`" horiz-adv-x="222" 
d="M169 576h-53q0 17 1.5 32.5t6.5 30t16 25.5t29 14v47q-57 -13 -80.5 -53.5t-23.5 -103.5v-98h104v106z" />
    <glyph glyph-name="a" unicode="a" 
d="M143 364q3 20 8.5 36t18 31t35.5 24.5t58 9.5q123 0 123 -85q0 -35 -12.5 -47.5t-33.5 -14.5l-145 -18q-51 -6 -83.5 -25.5t-49 -44.5t-21.5 -48.5t-5 -45.5q0 -67 46 -109t118 -42q68 0 111.5 24t77.5 61q3 -37 21.5 -58.5t71.5 -21.5q15 0 37 7q7 2 11 3v64
q-20 -4 -29 -4q-29 0 -29 31v301q0 47 -22.5 77t-55 44.5t-63 19.5t-53.5 5q-101 0 -157 -41.5t-59 -132.5h81zM384 181q0 -26 -13.5 -48.5t-36.5 -39t-52.5 -26t-59.5 -9.5q-48 0 -71.5 23.5t-23.5 67.5q0 23 10.5 39t27.5 25t35.5 13.5t38.5 7.5q76 10 104.5 17t40.5 16
v-86z" />
    <glyph glyph-name="b" unicode="b" 
d="M141 0v65h2q9 -14 19.5 -27t27.5 -25t41.5 -20t55.5 -8q64 0 109 26.5t71.5 69.5t38 94t11.5 102q0 114 -58 187.5t-160 73.5q-96 -2 -151 -81h-2v261h-88v-718h83zM426 263q0 -91 -36 -146.5t-105 -55.5q-23 0 -47.5 8.5t-46.5 29t-35.5 55t-13.5 83.5q0 39 5 75.5
t19.5 70.5t43 55t73.5 21q48 0 77.5 -19.5t43.5 -50t18 -61.5t4 -65z" />
    <glyph glyph-name="c" unicode="c" horiz-adv-x="500" 
d="M477 347q-3 36 -15 70t-35.5 61.5t-60 43.5t-85.5 16q-63 0 -110.5 -22t-79 -62t-46.5 -92.5t-15 -114.5q0 -116 63 -189t171 -73q55 0 94.5 18.5t64.5 48.5t37.5 64t16.5 69h-85q-11 -59 -45 -91.5t-80 -32.5q-43 0 -71.5 17.5t-44 47t-21.5 64t-6 72.5q0 37 7.5 72
t24.5 63t45 45t67 17q54 0 85 -29t39 -83h85z" />
    <glyph glyph-name="d" unicode="d" 
d="M499 718h-88v-262l-2 -7l-1 1q-12 18 -23 30.5t-29 26.5t-44 22.5t-59 8.5q-101 0 -159.5 -73.5t-58.5 -187.5q0 -51 12 -102t38.5 -94t71.5 -69.5t108 -26.5q45 0 84 19.5t65 67.5h2v-72h83v718zM126 263q0 34 4 65t18 61.5t43.5 50t77.5 19.5q45 0 73.5 -21t43 -54.5
t19.5 -70.5t5 -76q0 -49 -13.5 -84t-35 -55t-46.5 -28.5t-48 -8.5q-69 0 -105 55.5t-36 146.5z" />
    <glyph glyph-name="e" unicode="e" 
d="M421 164q-3 -34 -37 -66q-19 -17 -43.5 -27t-54.5 -10q-75 0 -113.5 44.5t-38.5 127.5h382q0 143 -57 224t-168 81q-63 0 -110.5 -22t-79 -62t-46.5 -92.5t-15 -114.5q0 -116 63 -189t171 -73q56 0 86.5 10t55.5 26q23 15 40.5 35.5t29.5 43.5q20 36 23 64h-88zM134 303
q0 30 11 58.5t31 50.5t47 34.5t56 12.5q39 0 66.5 -12.5t44 -34t25 -49t10.5 -60.5h-291z" />
    <glyph glyph-name="f" unicode="f" horiz-adv-x="278" 
d="M262 450v73h-88v65q0 32 12 46.5t40 14.5q14 0 36 -2v79h-3q-26 2 -37 2q-66 0 -101 -28.5t-35 -86.5v-90h-72v-73h72v-450h88v450h88z" />
    <glyph glyph-name="g" unicode="g" 
d="M131 263q0 34 4 65t18 61.5t43.5 50t77.5 19.5q45 0 73.5 -21t43 -54.5t19.5 -70.5t5 -76q0 -49 -13.5 -84t-35 -55t-46.5 -28.5t-48 -8.5q-69 0 -105 55.5t-36 146.5zM499 523h-83v-74h-2l-1 1q-12 18 -23 30.5t-29 26.5t-44 22.5t-59 8.5q-101 0 -159.5 -73.5
t-58.5 -187.5q0 -51 12 -102t38.5 -94t71.5 -69.5t108 -26.5q49 0 84.5 20t54.5 50v4h2v-22q0 -37 -3.5 -65.5t-17.5 -56t-45 -45t-83 -17.5q-14 0 -29.5 2t-34 9.5t-33.5 25t-21 46.5h-88q6 -49 28 -80.5t52 -48t60.5 -22t59.5 -5.5q85 0 136 28t73.5 70t28 81.5t5.5 83.5
v480z" />
    <glyph glyph-name="h" unicode="h" 
d="M491 356q0 53 -16 89t-43 56.5t-58.5 28.5t-65.5 8q-55 0 -90.5 -24.5t-62.5 -60.5h-2v265h-88v-718h88v285q0 48 12 81.5t33 54t46.5 29.5t54.5 9q59 0 81.5 -29.5t22.5 -87.5v-342h88v356z" />
    <glyph glyph-name="i" unicode="i" horiz-adv-x="222" 
d="M155 523h-88v-523h88v523zM155 618v100h-88v-100h88z" />
    <glyph glyph-name="j" unicode="j" horiz-adv-x="222" 
d="M155 523h-88v-590q0 -43 -12 -53.5t-53 -10.5h-18v-76q20 -3 37 -3q46 0 74 13.5t40.5 34t16 41t3.5 44.5v600zM155 718h-88v-100h88v100z" />
    <glyph glyph-name="k" unicode="k" horiz-adv-x="500" 
d="M289 328l200 195h-112l-225 -221v416h-85v-718h85v198l73 66l163 -264h113z" />
    <glyph glyph-name="l" unicode="l" horiz-adv-x="222" 
d="M155 718h-88v-718h88v718z" />
    <glyph glyph-name="m" unicode="m" horiz-adv-x="833" 
d="M65 0h88v285q0 50 13.5 84.5t35 54t45 27.5t44.5 8q44 0 63 -28.5t19 -68.5v-362h88v319q0 55 35 97.5t88 42.5t75 -31.5t22 -89.5v-338h88v362q0 52 -16 87t-41.5 54.5t-52.5 27t-52 7.5q-55 0 -87.5 -20t-72.5 -65v1q-8 15 -17.5 28t-25 26t-39.5 21.5t-57 8.5
t-59.5 -9.5t-45.5 -23t-30.5 -27.5t-22.5 -29h-2v74h-83v-523z" />
    <glyph glyph-name="n" unicode="n" 
d="M491 356q0 53 -16 89t-43 56.5t-58.5 28.5t-65.5 8q-32 0 -58 -9.5t-45.5 -23.5t-32 -28t-22.5 -28h-2v74h-83v-523h88v285q0 50 13.5 84.5t35 54t45 27.5t44.5 8q62 0 87 -33t25 -104v-322h88v356z" />
    <glyph glyph-name="o" unicode="o" 
d="M35 262q0 -52 15 -101t45 -89t76.5 -63t106.5 -23t106.5 23t76.5 63t45 89t15 101t-15 101.5t-45 89t-76.5 62.5t-106.5 23t-106.5 -23t-76.5 -63t-45 -89t-15 -101zM126 262q0 30 7 64t23.5 65t46.5 51t75 20t75 -20t47 -51t23.5 -65t6.5 -64t-6.5 -64t-23.5 -65
t-47 -51t-75 -20t-75 20t-46.5 51t-23.5 65t-7 64z" />
    <glyph glyph-name="p" unicode="p" 
d="M142 237q0 39 5 75.5t19.5 70.5t43 55t73.5 21q48 0 77.5 -19.5t43.5 -50t18 -61.5t4 -65q0 -91 -36 -146.5t-105 -55.5q-23 0 -47.5 8.5t-46.5 29t-35.5 55t-13.5 83.5zM58 -207h88v262h2q19 -30 54.5 -50t84.5 -20q64 0 109 26.5t71.5 69.5t38 94t11.5 102
q0 114 -58 187.5t-160 73.5q-33 0 -58.5 -8.5t-44 -22.5t-30 -27.5t-22.5 -29.5l-1 -1h-2v74h-83v-730z" />
    <glyph glyph-name="q" unicode="q" 
d="M494 523h-83v-74h-2l-1 1q-12 18 -23 30.5t-29 26.5t-44 22.5t-59 8.5q-101 0 -159.5 -73.5t-58.5 -187.5q0 -51 12 -102t38.5 -94t71.5 -69.5t108 -26.5q49 0 84.5 20t54.5 50h2v-262h88v730zM410 237q0 -49 -13.5 -84t-35 -55t-46.5 -28.5t-48 -8.5q-69 0 -105 55.5
t-36 146.5q0 34 4 65t18 61.5t43.5 50t77.5 19.5q45 0 73.5 -21t43 -54.5t19.5 -70.5t5 -76z" />
    <glyph glyph-name="r" unicode="r" horiz-adv-x="333" 
d="M165 304q0 59 37 99.5t97 40.5h33v91q-10 3 -23 3q-47 0 -83 -26.5t-64 -75.5h-2v87h-83v-523h88v304z" />
    <glyph glyph-name="s" unicode="s" horiz-adv-x="500" 
d="M447 374q0 17 -6.5 42.5t-26.5 53.5t-61 48t-106 20q-84 0 -138 -40q-28 -22 -44 -53.5t-16 -73.5q0 -52 31.5 -82.5t89.5 -44.5l102 -25q59 -15 81.5 -30t22.5 -45q0 -41 -34.5 -62t-85.5 -21q-43 0 -71 10t-42.5 26.5t-19 33t-6.5 37.5h-85q1 -32 8.5 -61t30 -57.5
t68 -46.5t118.5 -18q91 0 149 47t58 126q0 54 -33 86t-114 52l-88 22q-56 14 -75.5 27t-19.5 43q0 23 11.5 38t28.5 23t34 10.5t30 2.5q39 0 64.5 -8.5t38 -22t16.5 -27.5t5 -30h85z" />
    <glyph glyph-name="t" unicode="t" horiz-adv-x="278" 
d="M257 450v73h-84v146h-88v-146h-71v-73h71v-345q0 -53 23 -82.5t83 -29.5q5 0 26 3q29 3 40 4v69h-31q-22 0 -37.5 7t-15.5 34v340h84z" />
    <glyph glyph-name="u" unicode="u" 
d="M489 0v523h-88v-288q0 -31 -7.5 -61t-24 -56t-44.5 -41.5t-68 -15.5q-47 0 -74 27t-27 88v347h-88v-376q0 -45 15 -76.5t40 -50.5t54.5 -27t60.5 -8q61 0 99 22.5t67 70.5l2 -2v-76h83z" />
    <glyph glyph-name="v" unicode="v" horiz-adv-x="500" 
d="M248 97h-2l-136 426h-102l191 -523h94l199 523h-96z" />
    <glyph glyph-name="w" unicode="w" horiz-adv-x="722" 
d="M358 405h2l106 -405h91l152 523h-88l-106 -411h-2l-102 411h-98l-101 -411h-2l-100 411h-96l151 -523h91z" />
    <glyph glyph-name="x" unicode="x" horiz-adv-x="500" 
d="M306 269l177 254h-108l-121 -184l-121 184h-113l175 -254l-184 -269h111l126 197l130 -197h112z" />
    <glyph glyph-name="y" unicode="y" horiz-adv-x="500" 
d="M252 97h-2l-139 426h-100l194 -537v0q-18 -47 -27.5 -68.5t-18 -33t-19 -15.5t-28.5 -4q-28 0 -53 9v-80q7 -2 8 -2q19 -6 29 -6q47 0 71 6t42.5 26.5t37 60t54.5 131.5q58 149 165 449l23 64h-97z" />
    <glyph glyph-name="z" unicode="z" horiz-adv-x="500" 
d="M460 451v72h-405v-73h291l-315 -381v-69h438v73h-321z" />
    <glyph glyph-name="braceleft" unicode="{" horiz-adv-x="334" 
d="M42 234q35 0 58 -37t23 -93v-171q0 -59 30.5 -94t71.5 -35h67v65h-44q-24 0 -35 22.5t-11 59.5v169q-2 36 -12.5 63t-24.5 43.5t-27.5 25t-23.5 11.5v2q9 2 23 11t28 25.5t24.5 43t12.5 60.5v170q0 37 10.5 59.5t35.5 22.5h44v65h-67q-41 0 -71.5 -35t-30.5 -94v-172
q0 -55 -23 -91t-58 -36v-60z" />
    <glyph glyph-name="bar" unicode="|" horiz-adv-x="260" 
d="M94 -19h73v756h-73v-756z" />
    <glyph glyph-name="braceright" unicode="}" horiz-adv-x="334" 
d="M292 294q-35 0 -58 36t-23 91v172q0 59 -30.5 94t-71.5 35h-67v-65h44q25 0 35.5 -22.5t10.5 -59.5v-170q2 -34 12.5 -60t25 -43t28 -25.5t22.5 -11.5v-2q-10 -3 -23.5 -11.5t-27.5 -25t-24.5 -43.5t-12.5 -63v-169q0 -37 -10.5 -59.5t-35.5 -22.5h-44v-65h67
q41 0 71.5 35t30.5 94v171q0 56 23 93t58 37v60z" />
    <glyph glyph-name="asciitilde" unicode="~" horiz-adv-x="734" 
d="M658 349q-36 -53 -64 -80t-68 -27q-36 0 -153 53q-49 22 -90 35t-77 13q-68 0 -113 -35.5t-75 -92.5l54 -84q22 48 52 78t75 30q47 0 87.5 -14t84.5 -39q46 -24 81 -36.5t72 -12.5q57 0 104 34.5t84 93.5z" />
    <glyph glyph-name="fraction" unicode="&#xa7;" horiz-adv-x="167" 
d="M333 703h-57l-442 -722h57z" />
    <glyph glyph-name="section" unicode="&#xdf;" 
d="M460 554q0 53 -16.5 89t-43.5 56.5t-59 29t-65 8.5q-47 0 -81.5 -15.5t-56 -40.5t-32 -54.5t-10.5 -59.5q0 -28 10.5 -49.5t36.5 -50.5q-49 -29 -74.5 -64t-25.5 -94q0 -30 14.5 -64t50.5 -58l210 -140q28 -18 41.5 -36.5t13.5 -42.5q0 -26 -10.5 -42.5t-26.5 -25
t-33.5 -12t-34.5 -3.5q-32 0 -51.5 12t-29.5 29.5t-13 35.5t-3 35h-88q0 -95 54 -141.5t143 -46.5q33 0 65 11t58.5 32t42 51t15.5 67q0 35 -13 60.5t-39 53.5q47 30 75 66.5t28 93.5t-28 93t-81 67l-146 86q-37 22 -55 43t-18 47q0 41 28.5 61t63.5 20q32 0 52.5 -11
t30 -28t12.5 -33t4 -34v-1h85zM367 321q28 -17 45 -41t17 -55q0 -35 -17 -56.5t-52 -44.5l-189 122q-16 10 -30.5 30.5t-14.5 54.5q0 33 18 57t49 40z" />
    <glyph glyph-name="copyright" unicode="&#xa9;" horiz-adv-x="737" 
d="M370 -19q77 0 146 28t122.5 79.5t83.5 121.5t30 150t-30 149t-83.5 120.5t-122.5 79.5t-146 28t-147 -28t-123 -79t-83.5 -120.5t-30.5 -149.5t30 -150t83.5 -121.5t123.5 -79.5t147 -28zM62 360q0 66 23.5 123.5t65.5 100.5t98.5 66.5t120.5 23.5q63 0 119 -23.5
t98 -66.5t65.5 -100.5t23.5 -123.5q0 -67 -23.5 -125t-65.5 -101t-98 -66.5t-119 -23.5q-64 0 -120.5 23.5t-98.5 66.5t-65.5 101t-23.5 125zM501 289q-7 -42 -39 -68.5t-79 -26.5q-66 0 -106.5 49t-40.5 119q0 72 38 118t106 46q47 0 79.5 -24.5t41.5 -66.5h67
q-10 74 -62.5 115.5t-126.5 41.5q-100 0 -159.5 -64.5t-59.5 -166.5q0 -49 15.5 -91.5t45 -74.5t71 -49.5t91.5 -17.5q70 0 121 44t65 117h-68z" />
    <glyph glyph-name="quotedblleft" unicode="&#x2122;" horiz-adv-x="333" 
d="M307 576h-53q0 17 1.5 32.5t6.5 30t16 25.5t29 14v47q-57 -13 -80.5 -53.5t-23.5 -103.5v-98h104v106zM142 576h-53q0 17 1.5 32.5t6.5 30t16 25.5t29 14v47q-57 -13 -80.5 -53.5t-23.5 -103.5v-98h104v106z" />
    <glyph glyph-name="guillemotleft" unicode="&#xb4;" 
d="M254 196l-105 81l105 81v88l-157 -123v-92l157 -123v88zM459 196l-105 81l105 81v88l-157 -123v-92l157 -123v88z" />
    <glyph glyph-name="degree" unicode="&#x221e;" horiz-adv-x="400" 
d="M200 660q39 0 68.5 -31.5t29.5 -71.5t-29.5 -71.5t-68.5 -31.5t-68.5 31.5t-29.5 71.5t29.5 71.5t68.5 31.5zM346 557q0 62 -42 104t-104 42t-104 -42t-42 -104t42 -104t104 -42t104 42t42 104z" />
    <glyph glyph-name="twosuperior" unicode="&#x2264;" horiz-adv-x="333" 
d="M79 552v1q1 16 4 29.5t12 28t27 24.5t47 10q44 0 64 -18.5t20 -47.5q0 -36 -17 -53.5t-61 -40.5l-7 -4l-60 -33q-47 -26 -74 -65.5t-30 -101.5h319v61h-244q12 20 30 36.5t50 33.5l45 23q60 30 89.5 60t29.5 82q0 57 -41.5 91.5t-104.5 34.5q-24 0 -49.5 -5t-50.5 -20.5
t-41.5 -46.5t-16.5 -79h60z" />
    <glyph glyph-name="threesuperior" unicode="&#x2265;" horiz-adv-x="333" 
d="M5 410q4 -42 19 -73t50 -48q38 -19 84 -19q84 0 125.5 39.5t41.5 96.5q0 40 -20 63.5t-56 33.5v2q23 6 41 28t18 59q0 49 -38 80t-103 31q-43 0 -72.5 -12t-47 -32.5t-24.5 -44t-7 -49.5h61q2 34 19 57t62 23q46 0 63 -17t17 -39q0 -37 -22.5 -52t-59.5 -15h-27v-51h23
q20 0 36 -1.5t31.5 -8.5t25.5 -22t10 -40q0 -36 -25.5 -53.5t-70.5 -17.5q-27 0 -44 7.5t-25.5 19.5t-12 25.5t-4.5 29.5h-68z" />
    <glyph glyph-name="periodcentered" unicode="&#xa5;" horiz-adv-x="278" 
d="M140 315q-25 0 -44 -18t-19 -45q0 -25 18.5 -43.5t43.5 -18.5q27 0 45 19t18 43q0 26 -19 44.5t-43 18.5z" />
    <glyph glyph-name="paragraph" unicode="&#x2202;" horiz-adv-x="537" 
d="M232 -173h73v831h119v-831h73v891h-248q-109 0 -170 -47t-61 -143q0 -39 15.5 -72.5t44 -58.5t68 -39t86.5 -14v-517z" />
    <glyph glyph-name="bullet" unicode="&#x2211;" horiz-adv-x="350" 
d="M333 359q0 32 -12 61t-34 51t-51 34t-61 12t-61 -12t-50.5 -34t-33.5 -51t-12 -61t12 -61t34 -50q46 -46 111 -46q32 0 61 12t51 34t34 50.5t12 60.5z" />
    <glyph glyph-name="quotesinglbase" unicode="&#x220f;" horiz-adv-x="222" 
d="M53 0h53q0 -17 -1.5 -32.5t-6.5 -30t-16 -25.5t-29 -14v-47q57 13 80.5 53.5t23.5 103.5v98h-104v-106z" />
    <glyph glyph-name="quotedblbase" unicode="&#x3c0;" horiz-adv-x="333" 
d="M26 0h53q0 -17 -1.5 -32.5t-6.5 -30t-16 -25.5t-29 -14v-47q57 13 80.5 53.5t23.5 103.5v98h-104v-106zM191 0h53q0 -17 -1.5 -32.5t-6.5 -30t-16 -25.5t-29 -14v-47q57 13 80.5 53.5t23.5 103.5v98h-104v-106z" />
    <glyph glyph-name="quotedblright" unicode="&#x222b;" horiz-adv-x="333" 
d="M26 612h53q0 -17 -1.5 -32.5t-6.5 -30t-16 -25.5t-29 -14v-47q57 13 80.5 53.5t23.5 103.5v98h-104v-106zM191 612h53q0 -17 -1.5 -32.5t-6.5 -30t-16 -25.5t-29 -14v-47q57 13 80.5 53.5t23.5 103.5v98h-104v-106z" />
    <glyph glyph-name="guillemotright" unicode="&#xaa;" 
d="M254 231v92l-157 123v-88l105 -81l-105 -81v-88zM459 231v92l-157 123v-88l105 -81l-105 -81v-88z" />
    <glyph glyph-name="ellipsis" unicode="&#xba;" horiz-adv-x="1000" 
d="M219 106h-104v-106h104v106zM552 106h-104v-106h104v106zM885 106h-104v-106h104v106z" />
    <glyph glyph-name="perthousand" unicode="&#x3a9;" horiz-adv-x="1000" 
d="M7 539q0 -32 12 -60.5t33.5 -50t50 -33.5t60.5 -12t60.5 12t50 33.5t33.5 50.5t12 60q0 32 -12 60.5t-33.5 50t-50 33.5t-60.5 12q-31 0 -60 -12t-50.5 -33.5t-33.5 -50t-12 -60.5zM70 539q0 38 27 65.5t66 27.5q38 0 65.5 -27t27.5 -66q0 -38 -27.5 -65.5t-65.5 -27.5
q-39 0 -66 27.5t-27 65.5zM319 149q0 -32 12 -60.5t33.5 -50t50 -33.5t60.5 -12t60.5 12t50 33.5t33.5 50.5t12 60q0 32 -12 60.5t-33.5 50t-50 33.5t-60.5 12q-31 0 -60 -12t-50.5 -33.5t-33.5 -50t-12 -60.5zM382 149q0 38 27 65.5t66 27.5q38 0 65.5 -27t27.5 -66
q0 -38 -27.5 -65.5t-65.5 -27.5q-39 0 -66 27.5t-27 65.5zM682 149q0 -32 12 -60.5t33.5 -50t50 -33.5t60.5 -12t60.5 12t50 33.5t33.5 50.5t12 60q0 32 -12 60.5t-33.5 50t-50 33.5t-60.5 12q-31 0 -60 -12t-50.5 -33.5t-33.5 -50t-12 -60.5zM745 149q0 38 27 65.5t66 27.5
q38 0 65.5 -27t27.5 -66q0 -38 -27.5 -65.5t-65.5 -27.5q-39 0 -66 27.5t-27 65.5zM544 703h-55l-397 -722h55z" />
    <glyph glyph-name="RoiBlanc" unicode="&#xbf;" horiz-adv-x="855" 
d="M426 444q19.748 28.2114 47 127q0 31 -14.5 49t-32.5 20q-18 -2 -32.5 -20t-14.5 -49q25.5714 -89.5 47 -127zM426 49q76 0 129 6.5t53 17.5q0 17 -48 24t-134 10q-86 -3 -134 -10t-48 -24q0 -11 53 -17.5t129 -6.5zM384 327q0 60 -24 102.5t-58 67
q-57.9259 41.7407 -112 48.5q-24 -1 -43 -4.5q-67.3843 -12.4129 -70 -93.5q28 -75 61 -110.5t59 -35.5h51q136 0 136 26zM767 502.5q-9 16.5 -29.5249 28.4177q-20.5249 11.9177 -72.4751 14.0823q-52.9813 -6.23309 -112.5 -48.5q-34.5 -24.5 -58.5 -67.5t-24 -102
q0 -16 37.5 -21.5t143.5 -9.5q11 0 32 17t42.5 43.5t36 54t14.5 51.5t-9 40.5zM666 618q64.3256 1.13687e-13 114 -44.5q24 -21.5 38 -51t14 -66.5t-12.5 -63t-35.5 -56t-35.5 -50.5q-49.5 -81.18 -49.5 -200.5q-4 -48 -70.5 -70t-202.5 -22t-202 22t-70 68
q0 94.3333 -26 155q-12 28 -24 47t-35.5 50t-36 57t-12.5 64q0 70.4286 52.5 116.5q24.5 21.5 54 33t68 11t69 -15.5t54.5 -36q1 9 1.5 37.5t12.5 52.5t60 58v31l-54 33v48h49l17 51h44l18 -51h48v-48l-54 -33v-31q46.2536 -32.0217 63.5 -65.5q8.5 -16.5 9.5 -44t2 -38.5
q55.4314 50.3922 131 52zM639 216q0 13 -6.5 19.5t-24.5 10.5t-53 6.5t-75.5 5t-51.5 3.5q-11 -1 -82.1538 -5.1453q-71.1538 -4.1453 -96.8462 -9.8547q-18 -4 -24.5 -10.5t-6.5 -19.5l2 -36v-11q-1 -7 -1 -10q0 -16 14 -16q9 0 26 6q15 0 67.5 4.5t100 4.5t100.5 -4.5
t70 -4.5q17 -6 27 -6q14 0 14 18l-1 8v11z" />
    <glyph glyph-name="DameBlanche" unicode="&#xa1;" horiz-adv-x="986" 
d="M102 695q-13 0 -23 -10t-10 -23q0 -14 10 -24t23 -10t22.5 10t9.5 24q0 13 -9.5 23t-22.5 10zM277 780q-13 0 -23 -10t-10 -23q0 -14 10 -24t23 -10t22.5 10t9.5 24q0 13 -9.5 23t-22.5 10zM703 780q-13 0 -22.5 -10t-9.5 -23q0 -14 9.5 -24t22.5 -10q14 0 23.5 10
t9.5 24q0 13 -10 23t-23 10zM878 695q-13 0 -22.5 -10t-9.5 -23q0 -14 9.5 -24t22.5 -10q14 0 23.5 10t9.5 24q0 13 -10 23t-23 10zM491 860q29 0 51 -22t22 -53q0 -10 -8 -28q-10 -20 -15.5 -42t-5.5 -59q0 -35 7 -82.5t22 -111.5q41 85 56.5 140t15.5 89q0 19 -5 42
q-3 11 -3 16q0 31 22 53t53 22t53 -22t22 -53q0 -24 -5.5 -34t-18.5 -20q-18 -14 -27.5 -36.5t-9.5 -81.5q0 -45 7 -113q49 49 67.5 84t18.5 62q0 11 -4 30q-3 15 -3 22q0 31 22 53t53 22t53 -22t22 -53q-1 -25 -16.5 -46.5t-45.5 -35.5q-2 -45 -11 -88.5t-27 -115.5
q-4 -12 -10 -38q-1 -14 -11.5 -28t-30.5 -36q-22 -23 -34.5 -39.5t-19.5 -35.5q-2 -8 -2 -15q0 -15 14 -43q10 -20 15.5 -36t5.5 -36v-9q-1 -6 -1 -10v-2l1 -2q0 -18 -41.5 -29t-95 -16t-94.5 -6t-59 -1t-58 1t-95 6t-95.5 16t-40.5 29v2v2q0 4 -1 10v9q0 20 5.5 35.5
t15.5 36.5q15 28 15 43q0 7 -3 15q-7 19 -19 35t-34 40q-21 22 -31.5 36t-11.5 28q-6 26 -10 38q-18 72 -27 116t-11 88q-30 14 -45.5 35.5t-16.5 46.5q0 31 22 53t53 22t53 -22t22 -53q0 -7 -3 -22q-3 -19 -3 -30q0 -27 18 -62t67 -84q7 68 7 113q0 60 -9.5 82.5
t-27.5 36.5q-13 9 -18.5 19t-5.5 34q0 31 22 53t53 22t53 -22t22 -53q0 -5 -3 -16q-5 -23 -5 -42q0 -34 16 -89t56 -140q15 64 22 111.5t7 83.5q0 37 -5.5 58.5t-15.5 42.5q-8 18 -8 27q0 31 22 53t53 22zM491 821q-13 0 -23 -10t-10 -23q0 -14 10 -24t23 -10t22.5 10
t9.5 24q0 13 -9.5 23t-22.5 10zM391 403l-73 143l-10 -160q29 7 83 17zM261 374l-96 96l33 -115q18 6 45 14zM523 408l-32 154l-31 -154h31h32zM491 359q-95 -7 -163.5 -23t-68.5 -29q-8 0 -8 -12q0 -8 7.5 -13.5t23.5 -5.5t36 5q24 3 44.5 5t42.5 3q33 2 46.5 3.5t39.5 4.5
q23 -3 42 -5t44 -3l45 -3t42 -5q21 -5 36 -5q17 0 24.5 5.5t7.5 13.5q0 12 -9 12q0 13 -69 29t-163 23zM491 120q-51 -1 -85.5 -2t-65.5 -5t-49 -11.5t-18 -19.5q0 -16 60.5 -24.5t157.5 -8.5t157.5 8.5t60.5 24.5q0 12 -18 19.5t-49 11.5t-68.5 5.5t-82.5 1.5zM491 245
q-26 -1 -71 -3q-78 -2 -100.5 -9t-22.5 -35v-8q1 -6 1 -9q0 -1 -1 -3v-3q0 -15 42 -15q17 0 65 3q55 4 87 5q32 -1 87 -5q48 -3 65 -3q42 0 42 15v3q-1 2 -1 3q0 3 1 9v8q0 28 -22.5 35t-100.5 9q-45 2 -71 3zM721 374l18 -5q27 -8 45 -14l33 115zM591 403q54 -10 83 -17
l-10 160z" />
    <glyph glyph-name="TourBlanche" unicode="&#xac;" horiz-adv-x="753" 
d="M385 572h145l94 87v56h-36v-33l-27 -27h-121l-30 30v30h-25h-25v-30l-30 -30h-121l-27 27v33h-36v-56l94 -87h145zM385 284h132l1 221h-133h-133l1 -221h132zM385 782h74l23 -23v-34h38v34l23 23h123l38 -38v-120l-119 -103v-267l138 -137v-92l-26 -26h-312h-312l-26 26
v92l138 137v267l-119 103v120l38 38h123l23 -23v-34h38v34l23 23h74zM385 98h-231l-12 -10v-26h243h243v26l-12 10h-231zM385 163h164v24l-32 32h-132h-132l-32 -32v-24h164z" />
    <glyph glyph-name="FouBlanc" unicode="&#x221a;" horiz-adv-x="922" 
d="M475 54q-20 -20 -46 -33t-58 -21q-39 -10 -119 -17q-58 -5 -85 -12t-32 -26q-22 10 -35.5 25t-30.5 43q-16 27 -27 41q27 51 52 68t59 17q10 0 33 -1q30 -3 45 -3q29 0 61 6t68 20q-53 6 -73.5 20.5t-20.5 35.5q0 15 13 49q14 34 14 50q0 8 -3 15q-41 41 -59.5 80.5
t-18.5 77.5q0 47 25 89t60.5 72t68.5 48.5t45 20.5q-29 35 -29 75q0 35 24 58.5t69 23.5t69 -23.5t24 -58.5q0 -40 -29 -75q12 -2 45 -20.5t68.5 -49t60.5 -72t25 -88.5q0 -38 -18.5 -77.5t-59.5 -80.5q-3 -7 -3 -15q0 -16 14 -50t14 -49q0 -21 -21.5 -35.5t-73.5 -20.5
q36 -14 68 -20t61 -6q15 0 45 3q23 1 33 1q34 0 59 -17t52 -68q-11 -14 -27 -41q-17 -29 -30 -43.5t-36 -24.5q-5 19 -32.5 26t-84.5 12q-80 7 -133 20.5t-90 50.5zM475 138q18 -25 49 -43t68 -28t74.5 -14.5t69.5 -4.5q27 0 43.5 2.5t16.5 6.5v1l-1 1q0 4 -11 6t-35 3
q-40 2 -71.5 5.5t-68.5 14t-72.5 32.5t-61.5 57q-26 -35 -61.5 -57t-72.5 -32.5t-68.5 -14t-70.5 -5.5q-27 -2 -37 -3.5t-10 -5.5l-1 -1v-1q0 -4 17 -6.5t43 -2.5q32 0 69.5 4t74.5 14.5t68 28.5t49 43zM475 444h-25v61h-45v51h45v58h25h25v-58h45v-51h-45v-61h-25zM475 389
q40 -2 64 -2q36 0 57.5 5t34 17t18.5 33t8 56q2 6 2 12q0 23 -21 52.5t-52.5 56.5t-62.5 45t-48 20q-17 -2 -48 -20t-62.5 -45t-52.5 -56.5t-21 -52.5q0 -6 2 -12q3 -36 8.5 -56.5t18 -32.5t34 -17t57.5 -5q24 0 64 2zM475 251q-46 0 -64 -4.5t-18 -20.5q0 -15 21 -20t61 -5
q44 0 62.5 4.5t18.5 20.5q0 15 -21 20t-60 5zM475 342h-2q-68 -4 -99.5 -10t-31.5 -24q0 -15 28.5 -19t104.5 -4t104.5 4t28.5 19q0 19 -29.5 25t-93.5 9h-10zM475 821q-14 0 -24.5 -9.5t-10.5 -22.5t10.5 -23t24.5 -10t24 10t10 23t-10 22.5t-24 9.5z" />
    <glyph glyph-name="CavaBlanc" unicode="&#x192;" horiz-adv-x="853" 
d="M817 -3l-301 1l-260 1q4 65 25 105.5t59 88.5q31 38 47 66t20 67q-64 -27 -96.5 -61.5t-58.5 -79.5q-12 -23 -20 -32.5t-19 -10.5q-30 11 -72 23q-26 8 -41 13.5t-28.5 14t-25 24t-23.5 39.5q7 42 26 87t55 118q34 68 53 112t32 89q2 17 2 32q0 13 -1.5 29t-6.5 45v1
q24 0 50 -5.5t48.5 -14t36.5 -16t14 -9.5q19 32 36 48t24 16q33 -17 46 -37.5t28 -71.5q10 3 23 3q45 0 102 -34t110 -103.5t87 -179.5t34 -255q0 -55 -5 -113zM231 543q1 -1 3 -1t9 7q7 8 14.5 13t17.5 5q11 0 23 -6q4 -12 4 -24q0 -14 -6 -31q-11 -22 -23 -31.5t-26 -9.5
q-10 0 -27 6q-12 4 -17 4q-3 0 -6 -2q-9 -4 -18 -19t-23 -44q-19 -42 -30 -56q44 -15 44 -43q0 -29 -47 -55v-4q-1 -3 -1 -4q0 -8 7 -8q6 0 28 11q18 9 30 13.5t23 4.5t19 -6q18 34 38 50.5t51 30.5q33 16 46 30q12 12 24 28.5t29 42.5q25 37 39 54t25 17q4 0 8 -4
q0 -74 -8 -129.5t-21.5 -96t-28.5 -68t-38 -62.5q-19 -30 -30.5 -51.5t-20.5 -47.5h407q5 43 5 86q0 114 -30 204t-74 150t-85 90.5t-60 30.5q-11 4 -20 4q-10 0 -16.5 -4t-14.5 -11q-10 -9 -16 -9l-2 1h-3q-13 0 -20 13.5t-13 37.5q-4 17 -7 24t-8 9q-6 0 -24 -23
q-27 -34 -58 -58t-82 -30q-9 -9 -9 -18q0 -12 13 -12q1 0 3 1h3z" />
    <glyph glyph-name="PionBlanc" unicode="&#x2248;" horiz-adv-x="641" 
d="M617 4h-571q-2 35 -2 61q0 48 7.5 89.5t27 78.5t55 70t89.5 59q-34 12 -55 45.5t-21 73.5t23 74.5t69 53.5q-23 40 -23 76q0 47 37 75.5t78 28.5t78 -28.5t37 -75.5q0 -36 -23 -76q46 -19 69 -53.5t23 -74.5t-21 -73.5t-55 -45.5q55 -27 90.5 -60t55 -71t27 -79.5
t7.5 -90.5q0 -25 -2 -57zM535 75q3 20 3 38q0 38 -10.5 67t-27 50t-35.5 35.5t-45 31.5q-32 22 -47.5 36.5t-17.5 35.5q0 13 8 21.5t25 18.5q22 14 34 27.5t12 39.5q-1 31 -14 47t-38 32q-19 12 -27.5 21t-9.5 25q1 14 4.5 22.5t10.5 19.5q9 14 9 23q0 6 -2 13v4l1 4
q0 19 -13 28.5t-27 9.5t-27 -10t-13 -28l1 -4v-4q-2 -6 -2 -12q0 -9 9 -24q7 -10 11 -19.5t4 -22.5q-1 -16 -10 -25.5t-27 -20.5q-25 -16 -38 -32t-14 -47q0 -26 12 -39.5t34 -27.5q17 -10 25 -18.5t8 -21.5q-1 -21 -16.5 -35.5t-48.5 -36.5q-27 -18 -45 -32t-35 -35
t-27 -50.5t-10 -66.5q0 -18 2 -38h414z" />
    <glyph glyph-name="RoiNoir" unicode="&#x2206;" horiz-adv-x="859" 
d="M104 463q0 -22 13 -48t32.5 -50t40.5 -41.5t35 -25.5q5 -1 12 -2q19 -4 30 -4h9q10 1 17 1q8 1 17 1q27 1 39 7t12 27q-1 55 -18 95.5t-42 66t-53 38t-53 12.5q-42 0 -66.5 -22t-24.5 -55zM703 89q0 49 7 87t18.5 65.5t24 48t31.5 44.5q27 36 39.5 62t12.5 64
q0 36 -14 65.5t-38 51t-54 33t-60 11.5q-47 -1 -78 -16.5t-53 -35.5q-1 11 -2 30q-1 36 -10 55q-8 14 -22.5 29.5t-40.5 33.5v31l54 33v48h-48l-18 51h-20h-24l-17 -51h-49v-48l54 -33v-31q-48 -34 -60 -58t-12 -61q-1 -20 -2 -29v0q-24 21 -54.5 36t-77.5 16
q-30 0 -59.5 -11.5t-54 -33t-38.5 -51.5t-14 -65q0 -38 12.5 -64t39.5 -61q20 -27 32 -46t24 -47t19 -66.5t7 -88.5q4 -46 70 -68t202 -22t202.5 22t70.5 70zM431 157h14q11 1 18 1q26 0 54.5 -2.5t53 -6.5t40.5 -9.5t16 -12.5q0 -3 -3 -5l1 -3v-3q0 -12 -30 -12
q-16 0 -62 5q-68 7 -103 7t-103 -7q-46 -5 -62 -5q-30 0 -30 12q0 1 1 3v3q-3 3 -3 5q0 7 15.5 12.5t41.5 10t54 6.5t54 2q7 0 19 -1h14zM754 463q0 33 -24.5 55t-66.5 22q-25 0 -53 -12.5t-53 -38t-42 -66t-18 -95.5q0 -21 12 -27t39 -7q9 0 17 -1q7 0 17 -1h9q11 0 30 4
q7 1 12 2q14 7 35 25t40.5 42t32.5 50t13 48zM465 332q0 59 21 105.5t53 76.5t66 45t60 15q53 0 86 -28.5t33 -83.5q0 -21 -13.5 -49.5t-33.5 -56.5t-39 -50t-29 -30q-13 -12 -24.5 -14.5t-42.5 -2.5q-59 0 -173 20q-114 -20 -173 -20q-31 0 -42 2.5t-25 14.5q-10 8 -29 30
t-39 50t-33.5 56.5t-13.5 49.5q0 55 33 83.5t86 28.5q26 0 60 -15t66 -45t53 -76.5t21 -105.5q1 -14 11 -18.5t27 -4.5q14 0 24 6t10 17z" />
    <glyph glyph-name="RoiNoir" unicode="&#x394;" horiz-adv-x="859" 
d="M104 463q0 -22 13 -48t32.5 -50t40.5 -41.5t35 -25.5q5 -1 12 -2q19 -4 30 -4h9q10 1 17 1q8 1 17 1q27 1 39 7t12 27q-1 55 -18 95.5t-42 66t-53 38t-53 12.5q-42 0 -66.5 -22t-24.5 -55zM703 89q0 49 7 87t18.5 65.5t24 48t31.5 44.5q27 36 39.5 62t12.5 64
q0 36 -14 65.5t-38 51t-54 33t-60 11.5q-47 -1 -78 -16.5t-53 -35.5q-1 11 -2 30q-1 36 -10 55q-8 14 -22.5 29.5t-40.5 33.5v31l54 33v48h-48l-18 51h-20h-24l-17 -51h-49v-48l54 -33v-31q-48 -34 -60 -58t-12 -61q-1 -20 -2 -29v0q-24 21 -54.5 36t-77.5 16
q-30 0 -59.5 -11.5t-54 -33t-38.5 -51.5t-14 -65q0 -38 12.5 -64t39.5 -61q20 -27 32 -46t24 -47t19 -66.5t7 -88.5q4 -46 70 -68t202 -22t202.5 22t70.5 70zM431 157h14q11 1 18 1q26 0 54.5 -2.5t53 -6.5t40.5 -9.5t16 -12.5q0 -3 -3 -5l1 -3v-3q0 -12 -30 -12
q-16 0 -62 5q-68 7 -103 7t-103 -7q-46 -5 -62 -5q-30 0 -30 12q0 1 1 3v3q-3 3 -3 5q0 7 15.5 12.5t41.5 10t54 6.5t54 2q7 0 19 -1h14zM754 463q0 33 -24.5 55t-66.5 22q-25 0 -53 -12.5t-53 -38t-42 -66t-18 -95.5q0 -21 12 -27t39 -7q9 0 17 -1q7 0 17 -1h9q11 0 30 4
q7 1 12 2q14 7 35 25t40.5 42t32.5 50t13 48zM465 332q0 59 21 105.5t53 76.5t66 45t60 15q53 0 86 -28.5t33 -83.5q0 -21 -13.5 -49.5t-33.5 -56.5t-39 -50t-29 -30q-13 -12 -24.5 -14.5t-42.5 -2.5q-59 0 -173 20q-114 -20 -173 -20q-31 0 -42 2.5t-25 14.5q-10 8 -29 30
t-39 50t-33.5 56.5t-13.5 49.5q0 55 33 83.5t86 28.5q26 0 60 -15t66 -45t53 -76.5t21 -105.5q1 -14 11 -18.5t27 -4.5q14 0 24 6t10 17z" />
    <glyph glyph-name="DameNoire" unicode="&#xab;" horiz-adv-x="975" 
d="M251 308v-4q-1 -5 -1 -7q0 -8 7 -13.5t26 -5.5q15 0 35 3q77 4 111.5 5t63.5 1q30 0 63.5 -1t107.5 -5q20 -3 34 -3q19 0 26 5.5t7 14.5q0 2 -1 7v3q0 8 -20 14.5t-53.5 10.5t-76 6t-89.5 2q-48 0 -90 -2t-76 -6.5t-54 -10.5t-20 -14zM491 821q-13 0 -23 -10t-10 -23
q0 -14 10 -24t23 -10t22.5 10t9.5 24q0 13 -9.5 23t-22.5 10zM491 860q29 0 51 -22t22 -53q0 -10 -8 -28q-10 -20 -15.5 -42t-5.5 -59q0 -35 7 -82.5t22 -111.5q41 85 56.5 140t15.5 89q0 19 -5 42q-3 11 -3 16q0 31 22 53t53 22t53 -22t22 -53q0 -24 -5.5 -34t-18.5 -20
q-18 -14 -27.5 -36.5t-9.5 -81.5q0 -45 7 -113q49 49 67.5 84t18.5 62q0 11 -4 30q-3 15 -3 22q0 31 22 53t53 22t53 -22t22 -53q-1 -25 -16.5 -46.5t-45.5 -35.5q-2 -45 -11 -88.5t-27 -115.5q-4 -12 -10 -38q-1 -14 -11.5 -28t-30.5 -36q-22 -23 -34.5 -39.5t-19.5 -35.5
q-2 -8 -2 -15q0 -15 14 -43q10 -20 15.5 -36t5.5 -36v-9q-1 -6 -1 -10v-2l1 -2q0 -18 -41.5 -29t-95 -16t-94.5 -6t-59 -1t-58 1t-95 6t-95.5 16t-40.5 29v2v2q0 4 -1 10v9q0 20 5.5 35.5t15.5 36.5q15 28 15 43q0 7 -3 15q-7 19 -19 35t-34 40q-21 22 -31.5 36t-11.5 28
q-6 26 -10 38q-18 72 -27 116t-11 88q-30 14 -45.5 35.5t-16.5 46.5q0 31 22 53t53 22t53 -22t22 -53q0 -7 -3 -22q-3 -19 -3 -30q0 -27 18 -62t67 -84q7 68 7 113q0 60 -9.5 82.5t-27.5 36.5q-13 9 -18.5 19t-5.5 34q0 31 22 53t53 22t53 -22t22 -53q0 -5 -3 -16
q-5 -23 -5 -42q0 -34 16 -89t56 -140q15 64 22 111.5t7 83.5q0 37 -5.5 58.5t-15.5 42.5q-8 18 -8 27q0 31 22 53t53 22zM878 695q-13 0 -22.5 -10t-9.5 -23q0 -14 9.5 -24t22.5 -10q14 0 23.5 10t9.5 24q0 13 -10 23t-23 10zM703 780q-13 0 -22.5 -10t-9.5 -23
q0 -14 9.5 -24t22.5 -10q14 0 23.5 10t9.5 24q0 13 -10 23t-23 10zM277 780q-13 0 -23 -10t-10 -23q0 -14 10 -24t23 -10t22.5 10t9.5 24q0 13 -9.5 23t-22.5 10zM102 695q-13 0 -23 -10t-10 -23q0 -14 10 -24t23 -10t22.5 10t9.5 24q0 13 -9.5 23t-22.5 10zM271 145v-4
q-1 -4 -1 -7q0 -9 6.5 -14t23.5 -5q14 0 32 3h1q70 4 101.5 5t58.5 1q28 0 58.5 -1t98.5 -5q18 -3 31 -3q17 0 23.5 5.5t6.5 14.5q0 2 -1 6v4q0 8 -18.5 14.5t-49 10.5t-69.5 6t-82 2q-44 0 -82 -2t-70 -6.5t-50 -10.5t-18 -14z" />
    <glyph glyph-name="TourNoire" unicode="&#xbb;" horiz-adv-x="779" 
d="M392 784h-74l-23 -23v-34h-38v34l-23 23h-123l-38 -38v-120l119 -103v-267l-138 -137v-92l26 -26h312h312l26 26v92l-138 137v267l119 103v120l-38 38h-123l-23 -23v-34h-38v34l-23 23h-74zM240 528h304v-45h-304v45zM240 287h304v-45h-304v45z" />
    <glyph glyph-name="FouNoir" unicode="&#x2026;" horiz-adv-x="949" 
d="M496 821q14 0 24 -9.5t10 -22.5t-10 -23t-24 -10t-24.5 10t-10.5 23t10.5 22.5t24.5 9.5zM496 444h-25v61h-45v51h45v58h25h25v-58h45v-51h-45v-61h-25zM496 54q37 -37 90 -50.5t133 -20.5q57 -5 84.5 -12t32.5 -26q23 10 36 24.5t30 43.5q16 27 27 41q-27 51 -51.5 68
t-58.5 17q-11 0 -33 -2q-29 -2 -46 -2q-30 0 -61.5 6t-67.5 20q52 6 73 20.5t21 35.5q0 14 -14 51q-13 37 -13 50q0 8 3 13q41 41 59.5 80.5t18.5 77.5q0 47 -25.5 88.5t-61 72t-68 49t-44.5 20.5q29 35 29 75q0 35 -24 58.5t-69 23.5t-69 -23.5t-24 -58.5q0 -40 29 -75
q-12 -2 -44.5 -20.5t-68.5 -49t-61 -72t-25 -88.5q0 -38 18.5 -77.5t59.5 -80.5q3 -8 3 -17q0 -16 -14 -50q-13 -32 -13 -47q0 -21 21 -35.5t73 -20.5q-36 -14 -67.5 -20t-61.5 -6q-17 0 -46 2q-22 2 -33 2q-33 0 -58 -17.5t-52 -67.5q11 -14 27 -41q17 -28 30.5 -43
t35.5 -25q5 19 32 26t85 12q80 7 119 17q32 8 58 21t46 33zM431 377h130q35 0 52 -4t17 -17q0 -14 -27.5 -18t-106.5 -4t-106.5 4t-27.5 18q0 13 17 17t52 4zM431 293h130q35 0 52 -4t17 -17q0 -14 -27.5 -18t-106.5 -4t-106.5 4t-27.5 18q0 13 17 17t52 4z" />
    <glyph glyph-name="CavaNoir" unicode="&#xa0;" horiz-adv-x="917" 
d="M875 -3q5 58 5 113q0 145 -34 255t-87 179.5t-110 103.5t-102 34q-13 0 -23 -3q-15 51 -28 71.5t-46 37.5q-7 0 -24 -16t-36 -48q0 2 -14 9.5t-36.5 16t-48.5 14t-50 5.5v-1q5 -29 6.5 -45t1.5 -29q0 -15 -2 -32q-13 -45 -32 -89t-53 -112q-36 -73 -55 -118t-26 -87
q22 -45 43 -60.5t55 -23.5q17 -6 26 -6q18 0 31 17q0 -22 10 -31.5t25 -9.5q11 1 19 10.5t20 32.5q26 45 58.5 79.5t96.5 61.5q-4 -39 -20 -67t-47 -66q-38 -48 -59 -88.5t-25 -105.5l260 -1zM257 477q-10 9 -10 22q0 23 24.5 45.5t52.5 22.5q14 0 26 -7q4 -4 4 -11
q0 -10 -9 -22.5t-22.5 -24t-29 -19t-28.5 -7.5q-2 0 -4 1h-4zM814 92q0 -17 -6.5 -26t-15.5 -9q-10 0 -17.5 8.5t-9.5 22.5v19q1 9 1 18q0 128 -31.5 219.5t-77 144.5t-88.5 77t-68 26q-8 6 -8 14q0 14 18 14h3q3 -1 4 -1q6 2 13 2q31 0 79 -30.5t95 -90.5t79 -151.5
t32 -206.5q0 -25 -2 -50zM162 299q4 -8 4 -16q0 -16 -13 -27.5t-32 -11.5q-3 6 -3 14q0 16 11.5 28.5t32.5 12.5z" />
    <glyph glyph-name="PionNoir" unicode="&#xc0;" horiz-adv-x="631" 
d="M604 1q2 32 2 57q0 49 -7.5 90.5t-27 79.5t-55 71t-90.5 60q34 12 55 45.5t21 73.5t-23 74.5t-69 53.5q23 40 23 76q0 47 -37 75.5t-78 28.5t-78 -28.5t-37 -75.5q0 -36 23 -76q-46 -19 -69 -53.5t-23 -74.5t21 -73.5t55 -45.5q-54 -26 -89.5 -59t-55 -70t-27 -78.5
t-7.5 -89.5q0 -26 2 -61h571z" />
    <glyph glyph-name="agrave" unicode="&#x2021;" 
d="M256 593h67l-89 141h-108zM143 364q3 20 8.5 36t18 31t35.5 24.5t58 9.5q123 0 123 -85q0 -35 -12.5 -47.5t-33.5 -14.5l-145 -18q-51 -6 -83.5 -25.5t-49 -44.5t-21.5 -48.5t-5 -45.5q0 -67 46 -109t118 -42q68 0 111.5 24t77.5 61q3 -37 21.5 -58.5t71.5 -21.5
q15 0 37 7q7 2 11 3v64q-20 -4 -29 -4q-29 0 -29 31v301q0 47 -22.5 77t-55 44.5t-63 19.5t-53.5 5q-101 0 -157 -41.5t-59 -132.5h81zM384 181q0 -26 -13.5 -48.5t-36.5 -39t-52.5 -26t-59.5 -9.5q-48 0 -71.5 23.5t-23.5 67.5q0 23 10.5 39t27.5 25t35.5 13.5t38.5 7.5
q76 10 104.5 17t40.5 16v-86z" />
    <glyph glyph-name="aacute" unicode="&#xb7;" 
d="M431 734h-108l-89 -141h67zM143 364q3 20 8.5 36t18 31t35.5 24.5t58 9.5q123 0 123 -85q0 -35 -12.5 -47.5t-33.5 -14.5l-145 -18q-51 -6 -83.5 -25.5t-49 -44.5t-21.5 -48.5t-5 -45.5q0 -67 46 -109t118 -42q68 0 111.5 24t77.5 61q3 -37 21.5 -58.5t71.5 -21.5
q15 0 37 7q7 2 11 3v64q-20 -4 -29 -4q-29 0 -29 31v301q0 47 -22.5 77t-55 44.5t-63 19.5t-53.5 5q-101 0 -157 -41.5t-59 -132.5h81zM384 181q0 -26 -13.5 -48.5t-36.5 -39t-52.5 -26t-59.5 -9.5q-48 0 -71.5 23.5t-23.5 67.5q0 23 10.5 39t27.5 25t35.5 13.5t38.5 7.5
q76 10 104.5 17t40.5 16v-86z" />
    <glyph glyph-name="acircumflex" unicode="&#x201a;" 
d="M278 686l66 -93h80l-99 141h-93l-99 -141h79zM143 364q3 20 8.5 36t18 31t35.5 24.5t58 9.5q123 0 123 -85q0 -35 -12.5 -47.5t-33.5 -14.5l-145 -18q-51 -6 -83.5 -25.5t-49 -44.5t-21.5 -48.5t-5 -45.5q0 -67 46 -109t118 -42q68 0 111.5 24t77.5 61q3 -37 21.5 -58.5
t71.5 -21.5q15 0 37 7q7 2 11 3v64q-20 -4 -29 -4q-29 0 -29 31v301q0 47 -22.5 77t-55 44.5t-63 19.5t-53.5 5q-101 0 -157 -41.5t-59 -132.5h81zM384 181q0 -26 -13.5 -48.5t-36.5 -39t-52.5 -26t-59.5 -9.5q-48 0 -71.5 23.5t-23.5 67.5q0 23 10.5 39t27.5 25t35.5 13.5
t38.5 7.5q76 10 104.5 17t40.5 16v-86z" />
    <glyph glyph-name="atilde" unicode="&#x201e;" 
d="M389 722q-4 -21 -14 -33.5t-36 -12.5q-7 0 -20.5 3.5t-26.5 9.5l-22 9q-39 15 -68 15q-47 0 -72 -29.5t-32 -77.5h48q7 22 17.5 33t29.5 11q9 0 22 -3t39 -12l26 -9q23 -7 34.5 -10t24.5 -3q41 0 68 31t32 78h-50zM143 364q3 20 8.5 36t18 31t35.5 24.5t58 9.5
q123 0 123 -85q0 -35 -12.5 -47.5t-33.5 -14.5l-145 -18q-51 -6 -83.5 -25.5t-49 -44.5t-21.5 -48.5t-5 -45.5q0 -67 46 -109t118 -42q68 0 111.5 24t77.5 61q3 -37 21.5 -58.5t71.5 -21.5q15 0 37 7q7 2 11 3v64q-20 -4 -29 -4q-29 0 -29 31v301q0 47 -22.5 77t-55 44.5
t-63 19.5t-53.5 5q-101 0 -157 -41.5t-59 -132.5h81zM384 181q0 -26 -13.5 -48.5t-36.5 -39t-52.5 -26t-59.5 -9.5q-48 0 -71.5 23.5t-23.5 67.5q0 23 10.5 39t27.5 25t35.5 13.5t38.5 7.5q76 10 104.5 17t40.5 16v-86z" />
    <glyph glyph-name="adieresis" unicode="&#x2030;" 
d="M243 706h-91v-102h91v102zM405 706h-91v-102h91v102zM143 364q3 20 8.5 36t18 31t35.5 24.5t58 9.5q123 0 123 -85q0 -35 -12.5 -47.5t-33.5 -14.5l-145 -18q-51 -6 -83.5 -25.5t-49 -44.5t-21.5 -48.5t-5 -45.5q0 -67 46 -109t118 -42q68 0 111.5 24t77.5 61
q3 -37 21.5 -58.5t71.5 -21.5q15 0 37 7q7 2 11 3v64q-20 -4 -29 -4q-29 0 -29 31v301q0 47 -22.5 77t-55 44.5t-63 19.5t-53.5 5q-101 0 -157 -41.5t-59 -132.5h81zM384 181q0 -26 -13.5 -48.5t-36.5 -39t-52.5 -26t-59.5 -9.5q-48 0 -71.5 23.5t-23.5 67.5q0 23 10.5 39
t27.5 25t35.5 13.5t38.5 7.5q76 10 104.5 17t40.5 16v-86z" />
    <glyph glyph-name="ccedilla" unicode="&#xc1;" horiz-adv-x="500" 
d="M163 -86l17 -19q16 5 24.5 6.5t14.5 1.5q16 0 32 -9.5t16 -29.5q0 -24 -17.5 -33t-38.5 -9q-17 0 -30.5 3.5t-34.5 11.5l-17 -40q23 -10 47 -16t49 -6q54 0 86 26t32 66q0 29 -20 52t-64 23q-10 0 -25 -3q-3 -1 -6 -1l46 62h-47zM477 347q-3 36 -15 70t-35.5 61.5
t-60 43.5t-85.5 16q-63 0 -110.5 -22t-79 -62t-46.5 -92.5t-15 -114.5q0 -116 63 -189t171 -73q55 0 94.5 18.5t64.5 48.5t37.5 64t16.5 69h-85q-11 -59 -45 -91.5t-80 -32.5q-43 0 -71.5 17.5t-44 47t-21.5 64t-6 72.5q0 37 7.5 72t24.5 63t45 45t67 17q54 0 85 -29t39 -83
h85z" />
    <glyph glyph-name="egrave" unicode="&#xcb;" 
d="M256 593h67l-89 141h-108zM421 164q-3 -34 -37 -66q-19 -17 -43.5 -27t-54.5 -10q-75 0 -113.5 44.5t-38.5 127.5h382q0 143 -57 224t-168 81q-63 0 -110.5 -22t-79 -62t-46.5 -92.5t-15 -114.5q0 -116 63 -189t171 -73q56 0 86.5 10t55.5 26q23 15 40.5 35.5t29.5 43.5
q20 36 23 64h-88zM134 303q0 30 11 58.5t31 50.5t47 34.5t56 12.5q39 0 66.5 -12.5t44 -34t25 -49t10.5 -60.5h-291z" />
    <glyph glyph-name="eacute" unicode="&#xc8;" 
d="M431 734h-108l-89 -141h67zM421 164q-3 -34 -37 -66q-19 -17 -43.5 -27t-54.5 -10q-75 0 -113.5 44.5t-38.5 127.5h382q0 143 -57 224t-168 81q-63 0 -110.5 -22t-79 -62t-46.5 -92.5t-15 -114.5q0 -116 63 -189t171 -73q56 0 86.5 10t55.5 26q23 15 40.5 35.5t29.5 43.5
q20 36 23 64h-88zM134 303q0 30 11 58.5t31 50.5t47 34.5t56 12.5q39 0 66.5 -12.5t44 -34t25 -49t10.5 -60.5h-291z" />
    <glyph glyph-name="ecircumflex" unicode="&#xcd;" 
d="M278 686l66 -93h80l-99 141h-93l-99 -141h79zM421 164q-3 -34 -37 -66q-19 -17 -43.5 -27t-54.5 -10q-75 0 -113.5 44.5t-38.5 127.5h382q0 143 -57 224t-168 81q-63 0 -110.5 -22t-79 -62t-46.5 -92.5t-15 -114.5q0 -116 63 -189t171 -73q56 0 86.5 10t55.5 26
q23 15 40.5 35.5t29.5 43.5q20 36 23 64h-88zM134 303q0 30 11 58.5t31 50.5t47 34.5t56 12.5q39 0 66.5 -12.5t44 -34t25 -49t10.5 -60.5h-291z" />
    <glyph glyph-name="edieresis" unicode="&#xce;" 
d="M243 706h-91v-102h91v102zM405 706h-91v-102h91v102zM421 164q-3 -34 -37 -66q-19 -17 -43.5 -27t-54.5 -10q-75 0 -113.5 44.5t-38.5 127.5h382q0 143 -57 224t-168 81q-63 0 -110.5 -22t-79 -62t-46.5 -92.5t-15 -114.5q0 -116 63 -189t171 -73q56 0 86.5 10t55.5 26
q23 15 40.5 35.5t29.5 43.5q20 36 23 64h-88zM134 303q0 30 11 58.5t31 50.5t47 34.5t56 12.5q39 0 66.5 -12.5t44 -34t25 -49t10.5 -60.5h-291z" />
    <glyph glyph-name="igrave" unicode="&#xcf;" horiz-adv-x="278" 
d="M117 593h67l-89 141h-108zM183 523h-88v-523h88v523z" />
    <glyph glyph-name="iacute" unicode="&#xcc;" horiz-adv-x="278" 
d="M292 734h-108l-89 -141h67zM183 523h-88v-523h88v523z" />
    <glyph glyph-name="icircumflex" unicode="&#xd3;" horiz-adv-x="278" 
d="M139 686l66 -93h80l-99 141h-93l-99 -141h79zM183 523h-88v-523h88v523z" />
    <glyph glyph-name="idieresis" unicode="&#xd4;" horiz-adv-x="278" 
d="M104 706h-91v-102h91v102zM266 706h-91v-102h91v102zM183 523h-88v-523h88v523z" />
    <glyph glyph-name="ntilde" unicode="&#xd2;" 
d="M389 722q-4 -21 -14 -33.5t-36 -12.5q-7 0 -20.5 3.5t-26.5 9.5l-22 9q-39 15 -68 15q-47 0 -72 -29.5t-32 -77.5h48q7 22 17.5 33t29.5 11q9 0 22 -3t39 -12l26 -9q23 -7 34.5 -10t24.5 -3q41 0 68 31t32 78h-50zM491 356q0 53 -16 89t-43 56.5t-58.5 28.5t-65.5 8
q-32 0 -58 -9.5t-45.5 -23.5t-32 -28t-22.5 -28h-2v74h-83v-523h88v285q0 50 13.5 84.5t35 54t45 27.5t44.5 8q62 0 87 -33t25 -104v-322h88v356z" />
    <glyph glyph-name="ograve" unicode="&#xda;" 
d="M256 593h67l-89 141h-108zM35 262q0 -52 15 -101t45 -89t76.5 -63t106.5 -23t106.5 23t76.5 63t45 89t15 101t-15 101.5t-45 89t-76.5 62.5t-106.5 23t-106.5 -23t-76.5 -63t-45 -89t-15 -101zM126 262q0 30 7 64t23.5 65t46.5 51t75 20t75 -20t47 -51t23.5 -65t6.5 -64
t-6.5 -64t-23.5 -65t-47 -51t-75 -20t-75 20t-46.5 51t-23.5 65t-7 64z" />
    <glyph glyph-name="oacute" unicode="&#xdb;" 
d="M431 734h-108l-89 -141h67zM35 262q0 -52 15 -101t45 -89t76.5 -63t106.5 -23t106.5 23t76.5 63t45 89t15 101t-15 101.5t-45 89t-76.5 62.5t-106.5 23t-106.5 -23t-76.5 -63t-45 -89t-15 -101zM126 262q0 30 7 64t23.5 65t46.5 51t75 20t75 -20t47 -51t23.5 -65t6.5 -64
t-6.5 -64t-23.5 -65t-47 -51t-75 -20t-75 20t-46.5 51t-23.5 65t-7 64z" />
    <glyph glyph-name="ocircumflex" unicode="&#xd9;" 
d="M278 686l66 -93h80l-99 141h-93l-99 -141h79zM35 262q0 -52 15 -101t45 -89t76.5 -63t106.5 -23t106.5 23t76.5 63t45 89t15 101t-15 101.5t-45 89t-76.5 62.5t-106.5 23t-106.5 -23t-76.5 -63t-45 -89t-15 -101zM126 262q0 30 7 64t23.5 65t46.5 51t75 20t75 -20t47 -51
t23.5 -65t6.5 -64t-6.5 -64t-23.5 -65t-47 -51t-75 -20t-75 20t-46.5 51t-23.5 65t-7 64z" />
    <glyph glyph-name="dotlessi" unicode="&#x131;" horiz-adv-x="278" 
d="M183 523h-88v-523h88v523z" />
    <glyph glyph-name="odieresis" unicode="&#x2c6;" 
d="M243 706h-91v-102h91v102zM405 706h-91v-102h91v102zM35 262q0 -52 15 -101t45 -89t76.5 -63t106.5 -23t106.5 23t76.5 63t45 89t15 101t-15 101.5t-45 89t-76.5 62.5t-106.5 23t-106.5 -23t-76.5 -63t-45 -89t-15 -101zM126 262q0 30 7 64t23.5 65t46.5 51t75 20t75 -20
t47 -51t23.5 -65t6.5 -64t-6.5 -64t-23.5 -65t-47 -51t-75 -20t-75 20t-46.5 51t-23.5 65t-7 64z" />
    <glyph glyph-name="lslash" unicode="&#xaf;" horiz-adv-x="222" 
d="M242 435v58l-87 -50v275h-88v-321l-87 -50v-58l87 50v-339h88v385z" />
    <glyph glyph-name="ugrave" unicode="&#x2d8;" 
d="M256 593h67l-89 141h-108zM489 0v523h-88v-288q0 -31 -7.5 -61t-24 -56t-44.5 -41.5t-68 -15.5q-47 0 -74 27t-27 88v347h-88v-376q0 -45 15 -76.5t40 -50.5t54.5 -27t60.5 -8q61 0 99 22.5t67 70.5l2 -2v-76h83z" />
    <glyph glyph-name="uacute" unicode="&#x2d9;" 
d="M431 734h-108l-89 -141h67zM489 0v523h-88v-288q0 -31 -7.5 -61t-24 -56t-44.5 -41.5t-68 -15.5q-47 0 -74 27t-27 88v347h-88v-376q0 -45 15 -76.5t40 -50.5t54.5 -27t60.5 -8q61 0 99 22.5t67 70.5l2 -2v-76h83z" />
    <glyph glyph-name="ucircumflex" unicode="&#x2da;" 
d="M278 686l66 -93h80l-99 141h-93l-99 -141h79zM489 0v523h-88v-288q0 -31 -7.5 -61t-24 -56t-44.5 -41.5t-68 -15.5q-47 0 -74 27t-27 88v347h-88v-376q0 -45 15 -76.5t40 -50.5t54.5 -27t60.5 -8q61 0 99 22.5t67 70.5l2 -2v-76h83z" />
    <glyph glyph-name="udieresis" unicode="&#xb8;" 
d="M243 706h-91v-102h91v102zM405 706h-91v-102h91v102zM489 0v523h-88v-288q0 -31 -7.5 -61t-24 -56t-44.5 -41.5t-68 -15.5q-47 0 -74 27t-27 88v347h-88v-376q0 -45 15 -76.5t40 -50.5t54.5 -27t60.5 -8q61 0 99 22.5t67 70.5l2 -2v-76h83z" />
    <glyph glyph-name="yacute" unicode="&#x2dd;" horiz-adv-x="500" 
d="M403 734h-108l-89 -141h67zM252 97h-2l-139 426h-100l194 -537v0q-18 -47 -27.5 -68.5t-18 -33t-19 -15.5t-28.5 -4q-28 0 -53 9v-80q7 -2 8 -2q19 -6 29 -6q47 0 71 6t42.5 26.5t37 60t54.5 131.5q58 149 165 449l23 64h-97z" />
    <glyph glyph-name="ydieresis" unicode="&#x2c7;" horiz-adv-x="500" 
d="M215 706h-91v-102h91v102zM377 706h-91v-102h91v102zM252 97h-2l-139 426h-100l194 -537v0q-18 -47 -27.5 -68.5t-18 -33t-19 -15.5t-28.5 -4q-28 0 -53 9v-80q7 -2 8 -2q19 -6 29 -6q47 0 71 6t42.5 26.5t37 60t54.5 131.5q58 149 165 449l23 64h-97z" />
  </font>
</defs>
</svg>
