<svg version="1.1" viewBox="0 0 1024 1024" xmlns="http://www.w3.org/2000/svg">
 <path d="m512 54a85 84 0 0 0-85 84 85 84 0 0 0 42 72c-126 40-222 158-206 241 8 39 30 94 79 146-1 34-20 75-26 96-9 33 13 55 90 64-168 72-237-49-318 106 25 32 47 93 92 108 31-67 166 5 332-104 166 109 301 37 332 104 45-15 67-75 92-108-80-154-149-34-318-106 77-8 100-30 90-64-6-21-25-62-26-96 49-51 71-106 79-146 16-82-80-201-206-241a85 84 0 0 0 42-72 85 84 0 0 0-85-84zm0 51a34 34 0 0 1 34 34 34 34 0 0 1-34 34 34 34 0 0 1-34-34 34 34 0 0 1 34-34zm-24 215h47v51h46v50h-46v67h-47v-67h-46v-50h46zm-65 230h178c55 0 54 42 0 42-47 0-79 0-89 0-9 0-42 0-89-0-54-0-55-42 0-42zm0 82h178c55 0 54 42 0 42-47 0-79 0-89 0-9 0-42 0-89-0-54-0-55-42 0-42z"/>
</svg>
