<svg version="1.1" viewBox="0 0 1e3 1e3" xmlns="http://www.w3.org/2000/svg">
 <path d="m474 127h-49v47l54 33v31c-54 34-74 61-73 133-39-23-88-43-162-38s-127 80-136 146c-11 82 83 144 108 223 40 125 9 127 32 178 31 67 111 65 129 66 55 0 85 0 134 6e-3 49 0 80 0 134-6e-3 18-1 99 1 129-66 23-50-8-52 32-178 25-79 119-141 108-223-9-66-62-141-133-150-60-8-117 14-162 40 1-70-19-97-73-131v-31l54-33v-47h-49l-15-49h-47zm-207 246c1 2e-3 -1 0 0 0 48 1 103 28 142 71 37 42 58 94 55 141 0 16 0 38 17 46 15 2 47 5 58 0 14-8 15-25 14-58s20-86 57-128c39-43 91-70 139-71 29-1 55 8 75 25 53 47 43 144-21 217-45 50-107 77-152 73s-78-11-110-16c-26 0-52-2-76 2-30 5-59 10-89 12-52 7-114-20-159-70-65-72-74-170-21-217 19-17 43-28 71-28zm-55 50c-37 38-25 116 29 171 39 39 54 48 81 57s71 27 109-13-4-149-57-194c-32-27-69-42-98-42s-49 6-64 22zm438 21c-53 45-95 154-57 194s82 22 109 13 42-18 81-57c54-54 66-133 29-171-15-15-36-22-64-22s-66 16-98 43zm23 355c14 5 40 8 38 28-7 13-24 14-37 13-52-6-105-7-158-8-49 0-98 1-147 6-19 2-42 7-57-8-8-16 14-24 26-27 50-14 102-16 158-16s118-1 177 12z"/>
</svg>
