<svg version="1.1" viewBox="0 0 1024 1024" xmlns="http://www.w3.org/2000/svg">
 <path d="m390 391c7-45-73-20-93 7-12 16-22 58 5 58 38 1 82-29 88-65zm33-180c26-12 33-64 54-62 41 21 72 61 79 106 76-10 143 38 196 87 109 101 151 254 161 398 4 63 3 125-3 188h-553c1-76 43-143 92-199 28-35 54-74 59-120-66 24-121 73-154 135-10 31-56 70-73 22 4-38-48 28-53-11-17 11-106-29-104-77 4-95 70-177 109-263 33-67 70-141 53-218-24-47 34-23 61-19 27 7 54 18 77 33zm-232 469c15-9 28-37 12-46-37-23-65 78-12 46zm488-325c-29-19-93-54-146-45-41 21 23 42 45 49 100 34 168 132 190 234 21 80 18 164 22 246 5 63 59 18 54-28-13-135 7-179-59-324-39-85-81-116-106-132z"/>
</svg>
