<svg version="1.1" viewBox="0 0 1e3 1e3" xmlns="http://www.w3.org/2000/svg">
 <path d="m509 82c-55-1-92 65-66 114 25 39 25 86 19 131-5 52-12 103-21 154-30-64-61-129-73-199 0-46 27-101-16-137-43-43-127-11-128 50-6 54 54 82 58 134 7 46 11 117-6 149-38-41-72-92-76-148 8-45-2-103-52-118-55-20-116 38-97 94 14 46 72 69 71 122 11 72 15 152 61 212 33 36 80 76 74 131-6 44-66 94-24 134 59 28 126 30 190 35 43 3 85 2 129 3 56-3 118-5 176-17 48-1 104-39 66-91-21-36-42-81-15-119 27-50 82-81 95-139 18-55 22-114 32-171 13-49 79-73 69-130-5-61-90-90-130-44-40 37-10 94-29 138-17 41-39 82-72 112-10-64-16-134 13-194 29-35 62-83 32-128-29-50-113-46-134 9-22 45 16 93-3 139-17 60-41 117-69 173-12-72-23-145-24-218 3-48 50-92 21-141-13-24-40-40-67-39h-3zm4 39c21 0 38 17 38 38s-17 38-38 38-38-17-38-38 17-38 38-38zm-211 39c21 0 38 17 38 38s-17 38-38 38-38-17-38-38 17-38 38-38zm423 2e-3c21 0 38 17 38 38s-17 38-38 38-38-17-38-38 17-38 38-38zm-598 85c21 0 38 17 38 38s-17 38-38 38-38-17-38-38 17-38 38-38zm774 2e-3c21 0 38 17 38 38s-17 38-38 38-38-17-38-38 17-38 38-38zm-173 369c16 4 43 11 37 32-5 18-31 16-47 17-56 3-111-6-167-8-69-2-137 8-205 8-20 0-44 3-59-11-17-17 12-33 28-37 79-16 145-17 214-17 69 0 135 2 199 16zm-196 141c62 0 118 2 175 16 14 4 39 11 34 32-4 18-28 16-43 17-50 3-100-6-150-8-62-2-123 8-185 8-18 0-40 3-53-11-15-17 11-33 25-37 71-16 135-17 197-17z"/>
</svg>
