<svg version="1.1" viewBox="0 0 100 100" xmlns="http://www.w3.org/2000/svg">
 <path id="BlackBishop" d="m50 5.1c-1 1.1e-4 -2 0.13-3 0.39-4 0.95-6.1 3.4-6.1 7.5-1e-4 2.5 0.95 4.9 2.8 7.2-2.2 0.26-5.9 2.5-11 6.7-5.6 4.6-8.4 9.8-8.4 15 0 4.9 2.6 11 7.9 17 0 0.52-0.22 1.5-0.65 2.8-1.4 4.1-2.1 6.3-2.1 6.6 0 3 3.1 4.8 9.2 5.3-4.4 1.7-8.6 2.6-13 2.6-5.1-0.26-7.6-0.39-7.6-0.39-1.1 0-2.2 0.17-3.1 0.52-2.7 0.86-5.2 3.4-7.5 7.7 1 1.3 1.9 2.6 2.7 4 2 3.4 4.1 5.5 6.3 6.5 0.086-0.34 0.21-0.65 0.39-0.9 1-1.3 4.7-2.2 11-2.7 2.5-0.34 4.5-0.6 6.1-0.78 6.9-0.52 12-2.5 15-6.1 3.7 3.7 11 6 21 6.8l3.1 0.26c5.2 0.43 7.9 1.6 8.3 3.4 1.5-0.52 3-1.6 4.4-3.4l4.6-7.1c-0.52-0.86-0.95-1.6-1.3-2.3-2.4-4-5.5-5.9-9.3-5.9-4.6 0.26-7.1 0.39-7.6 0.39-3.9 0-8-0.86-13-2.6 6.1-0.52 9.2-2.3 9.2-5.3l-2.6-9.9c5.2-5.9 7.7-11 7.7-16-1e-4 -6.6-4-13-12-18-3.3-2.2-5.7-3.6-7.4-4 1.9-2.4 2.8-4.8 2.8-7.2v-0.39l-0.65-2.7c-1.3-3.2-4.1-4.8-8.4-4.8zm0 5.3c2.2 0 3.2 1 3.2 3.1-1.1e-4 2.2-1.1 3.2-3.2 3.2-0.26 0-0.52-0.043-0.78-0.13-1.7-0.43-2.6-1.5-2.6-3.1l0.13-0.78c0.43-1.5 1.5-2.3 3.2-2.3zm-2.3 20h4.6v5.6h4.5v4.9h-4.5v5.9h-4.6v-5.9h-4.5v-4.9h4.5zm-4 23h13c4.4 0 6.6 0.69 6.6 2.1-1.2e-4 0.95-0.86 1.5-2.6 1.7-2.3 0.26-5.8 0.39-10 0.39-4.6 0-8-0.13-10-0.39-1.8-0.17-2.7-0.73-2.7-1.7-1.2e-4 -0.34 0.086-0.6 0.26-0.78 0.43-0.86 2.5-1.3 6.3-1.3zm0 8h13c4.4 0 6.6 0.69 6.6 2.1-1.2e-4 1.5-4.3 2.2-13 2.2h-7.1c-3.9-0.26-5.8-0.99-5.8-2.2-1.2e-4 -1.4 2.2-2.1 6.6-2.1z"/>
</svg>
