<?xml version="1.0" encoding="UTF-8" standalone="no"?>
<!-- Created with Inkscape (http://www.inkscape.org/) -->

<svg
   xmlns:dc="http://purl.org/dc/elements/1.1/"
   xmlns:cc="http://creativecommons.org/ns#"
   xmlns:rdf="http://www.w3.org/1999/02/22-rdf-syntax-ns#"
   xmlns:svg="http://www.w3.org/2000/svg"
   xmlns="http://www.w3.org/2000/svg"
   xmlns:sodipodi="http://sodipodi.sourceforge.net/DTD/sodipodi-0.dtd"
   xmlns:inkscape="http://www.inkscape.org/namespaces/inkscape"
   height="100"
   id="svg1"
   inkscape:version="0.48.4 r9939"
   sodipodi:docname="bQ.svg"
   sodipodi:version="0.32"
   width="100"
   version="1.1">
  <metadata
     id="metadata3004">
    <rdf:RDF>
      <cc:Work
         rdf:about="">
        <dc:title />
        <dc:description />
        <dc:subject>
          <rdf:Bag>
            <rdf:li />
            <rdf:li>game</rdf:li>
            <rdf:li>chess</rdf:li>
            <rdf:li>symbols</rdf:li>
            <rdf:li>board</rdf:li>
            <rdf:li>recreation</rdf:li>
            <rdf:li>fonts</rdf:li>
          </rdf:Bag>
        </dc:subject>
        <dc:publisher>
          <cc:Agent
             rdf:about="http://www.openclipart.org">
            <dc:title>Igor Krizanovskij</dc:title>
          </cc:Agent>
        </dc:publisher>
        <dc:creator>
          <cc:Agent>
            <dc:title>Igor Krizanovskij</dc:title>
          </cc:Agent>
        </dc:creator>
        <dc:rights>
          <cc:Agent>
            <dc:title>Igor Krizanovskij</dc:title>
          </cc:Agent>
        </dc:rights>
        <dc:date />
        <dc:format>image/svg+xml</dc:format>
        <dc:type
           rdf:resource="http://purl.org/dc/dcmitype/StillImage" />
        <cc:license
           rdf:resource="http://web.resource.org/cc/PublicDomain" />
        <dc:language>en</dc:language>
      </cc:Work>
      <cc:License
         rdf:about="http://web.resource.org/cc/PublicDomain">
        <cc:permits
           rdf:resource="http://web.resource.org/cc/Reproduction" />
        <cc:permits
           rdf:resource="http://web.resource.org/cc/Distribution" />
        <cc:permits
           rdf:resource="http://web.resource.org/cc/DerivativeWorks" />
      </cc:License>
    </rdf:RDF>
  </metadata>
  <defs
     id="defs3" />
  <sodipodi:namedview
     bordercolor="#666666"
     borderopacity="1.0"
     id="base"
     inkscape:current-layer="layer1"
     inkscape:cx="304.04147"
     inkscape:cy="161.29208"
     inkscape:pageopacity="0.0"
     inkscape:pageshadow="2"
     inkscape:window-height="1017"
     inkscape:window-width="1920"
     inkscape:window-x="-8"
     inkscape:window-y="-8"
     inkscape:zoom="1.3674339"
     pagecolor="#ffffff"
     showgrid="false"
     inkscape:window-maximized="1" />
  <g
     id="layer1"
     inkscape:groupmode="layer"
     inkscape:label="Layer 1"
     transform="translate(0,-275)">
    <path
       d="m 28.69852,353.14378 c 0,1.37707 0.98976,2.0656 2.9693,2.0656 l 8.90789,-0.6455 c -1.1e-4,0 2.58189,-0.12911 7.746,-0.3873 l 1.9365,0 15.10468,0.77461 3.0984,0.25819 c 1.9794,0 2.9692,-0.68853 2.9693,-2.0656 -10e-5,-2.49592 -5.76658,-3.87299 -17.2994,-4.13119 l -4.00209,0 c -9.72564,0 -16.22356,0.73158 -19.49409,2.19469 -1.29099,0.51641 -1.93649,1.16191 -1.93649,1.9365 M 12.56103,299.18002 c -1.63528,0 -2.6680601,0.81765 -3.0984001,2.45291 -0.0861,0.2582 -0.12911,0.51639 -0.12911,0.77461 0,1.63526 0.8176501,2.66806 2.4529101,3.09838 0.25819,0.0861 0.51639,0.12911 0.7746,0.12911 2.06559,0 3.09839,-1.07584 3.09839,-3.22749 0,-2.15168 -1.0328,-3.22752 -3.09839,-3.22752 m 16.91207,-8.13329 c -2.23772,0 -3.35657,1.07584 -3.35657,3.2275 0,2.15168 1.11885,3.2275 3.35657,3.2275 2.06561,0 3.09841,-1.07582 3.09841,-3.2275 0,-2.15166 -1.0328,-3.2275 -3.09841,-3.2275 m 41.18288,0 c -1.46324,0 -2.45301,0.73158 -2.96929,2.1947 l -0.12911,1.0328 c -1e-4,2.15168 1.0327,3.2275 3.0984,3.2275 2.15155,0 3.22739,-1.07582 3.22749,-3.2275 -1e-4,-2.15166 -1.07594,-3.2275 -3.22749,-3.2275 m 16.78299,8.13329 c -2.06572,0 -3.0985,1.07584 -3.09839,3.22752 -1.1e-4,2.15165 1.03267,3.22749 3.09839,3.22749 2.15156,0 3.22738,-1.07584 3.22751,-3.22749 -1.3e-4,-1.63526 -0.81775,-2.66807 -2.45291,-3.09841 -0.2583,-0.0861 -0.51651,-0.12911 -0.7746,-0.12911 m -9.2952,61.70977 c -1.1e-4,2.40986 -4.43253,4.08816 -13.29727,5.0349 l -12.52271,0.77458 -2.3238,0 c -10.50022,0 -18.50432,-0.90369 -24.01257,-2.71108 -2.66807,-0.77461 -4.0021,-1.80741 -4.0021,-3.0984 0,-2.49593 0.68853,-5.33614 2.0656,-8.5206 0.94673,-1.89347 1.42011,-3.22751 1.42011,-4.00209 0,-1.63526 -1.97954,-4.81975 -5.93861,-9.55339 -2.15166,-2.49594 -3.39962,-4.21728 -3.74389,-5.16402 0,-0.51639 -0.2582,-1.67829 -0.77461,-3.48568 l -1.6783,-6.455 c -1.11885,-4.21727 -1.85042,-8.69271 -2.19469,-13.42639 -3.9590601,-1.63526 -5.9385901,-4.26029 -5.9385901,-7.87508 0,-3.09841 1.42008,-5.2931 4.26029,-6.58409 0.9467301,-0.43035 1.9795301,-0.64552 3.0984001,-0.64552 2.84019,0 4.94883,1.29101 6.32589,3.87301 0.60248,1.11885 0.90371,2.23773 0.90371,3.3566 l -0.6455,4.90579 c 0,3.87299 2.75411,8.60666 8.26239,14.20099 0.43032,-3.52873 0.6455,-7.22959 0.6455,-11.10261 0,-5.76645 -1.0328,-9.42428 -3.0984,-10.97347 -0.17213,-0.17215 -0.34428,-0.30123 -0.51639,-0.3873 -1.54921,-0.94674 -2.3238,-2.62503 -2.3238,-5.0349 0,-3.18446 1.46311,-5.37917 4.38938,-6.5841 0.94675,-0.43033 1.93651,-0.6455 2.96929,-0.6455 3.01234,0 5.16401,1.37708 6.45501,4.13119 0.51639,0.94675 0.77448,1.97953 0.7746,3.09841 l -0.90371,5.55129 c 0,4.81974 2.36673,12.17841 7.10051,22.07609 1.80728,-8.09027 2.711,-14.28705 2.7111,-18.59039 -1e-4,-3.61479 -0.64562,-6.92836 -1.93649,-9.94068 -0.51652,-1.11888 -0.77471,-1.97954 -0.77461,-2.58201 -10e-5,-3.18447 1.41998,-5.37916 4.26029,-6.58411 0.94662,-0.43032 1.93639,-0.6455 2.9693,-0.6455 3.01223,0 5.12084,1.42011 6.32589,4.26032 0.43022,0.94673 0.6454,1.93649 0.6455,2.96929 -1e-4,0.17213 -0.73167,2.4529 -2.19469,6.8423 -0.34439,1.11885 -0.51651,3.01233 -0.51641,5.68039 -10e-5,4.30334 0.90359,10.50012 2.7111,18.59039 4.64749,-9.81161 6.9713,-17.1703 6.9714,-22.07609 l -0.7746,-5.42218 0,-0.12911 c -1.2e-4,-3.18446 1.46303,-5.37917 4.3894,-6.5841 0.94662,-0.43033 1.93639,-0.6455 2.96929,-0.6455 3.01223,0 5.16389,1.37708 6.455,4.13119 0.51629,0.94675 0.77449,1.97953 0.77459,3.09841 -1e-4,2.40987 -0.77471,4.1312 -2.3238,5.16398 -2.40997,1.54922 -3.61489,5.33614 -3.61479,11.3608 -1e-4,3.78694 0.21505,7.44477 0.6455,10.9735 5.50814,-5.59433 8.26228,-10.328 8.26239,-14.20099 l -0.6455,-4.90579 c -1e-4,-3.01234 1.37697,-5.16401 4.13121,-6.45501 0.94662,-0.51639 1.97942,-0.7746 3.09839,-0.7746 3.0983,0 5.29299,1.37706 6.58409,4.1312 l 0.7746,2.45291 0,0.6455 c -10e-5,3.44264 -1.97964,6.06767 -5.93859,7.87508 -0.51651,5.9386 -1.97964,13.21123 -4.3894,21.81788 -0.17223,0.68854 -0.25831,1.20493 -0.2582,1.54919 -1.1e-4,0.60247 -0.64561,1.59224 -1.9365,2.96931 l -1.54919,1.93649 c -4.13131,4.73367 -6.19691,8.0042 -6.19681,9.81161 -1e-4,0.51639 1.0327,3.18446 3.09841,8.00419 0.34417,1.72132 0.51628,3.2275 0.51639,4.5185 M 50.1291,287.04464 c -1.63538,0 -2.66818,0.81764 -3.09841,2.4529 -0.0862,0.2582 -0.12919,0.51639 -0.12908,0.77459 -1.1e-4,1.63527 0.81751,2.66807 2.45288,3.09841 0.25809,0.0861 0.51631,0.12911 0.77461,0.12911 2.0655,0 3.09828,-1.07584 3.0984,-3.22752 -1.2e-4,-1.54919 -0.73167,-2.582 -2.19471,-3.09839 -0.2583,-0.0861 -0.55953,-0.1291 -0.90369,-0.1291 m 23.23798,50.34897 c -1e-4,-2.75414 -7.7461,-4.13122 -23.23798,-4.13122 -15.57806,0 -23.36708,1.42011 -23.36708,4.26032 0,1.20492 1.11885,1.80739 3.35658,1.80739 2.58202,0 5.80951,-0.21516 9.68251,-0.6455 l 8.39149,-0.25819 2.06561,0 c 2.40974,0 6.97126,0.21515 13.68458,0.6455 l 6.32589,0.25819 c 2.0655,0 3.0983,-0.6455 3.0984,-1.93649"
       id="BlackQueen"
       style="font-size:12px;font-style:normal;font-weight:normal;fill:#000000;fill-opacity:1;stroke:none;font-family:Bitstream Vera Sans"
       inkscape:connector-curvature="0" />
  </g>
</svg>
